{
DisplayStrings = (
/uniF151
);
copyright = MedeiraCloud;
customParameters = (
{
name = glyphOrder;
value = (
    ".notdef",
    uniF110,
    uniF111,
    uniF112,
    uniF113,
    uniF114,
    uniF115,
    uniF116,
    uniF117,
    uniF118,
    uniF119,
    uniF11A,
    uniF11B,
    uniF11C,
    uniF11D,
    uniF11E,
    uniF11F,
    uniF120,
    uniF121,
    uniF122,
    uniF123,
    uniF124,
    uniF125,
    uniF126,
    uniF127,
    uniF128,
    uniF129,
    uniF12A,
    uniF12B,
    uniF12C,
    uniF12D,
    uniF12E,
    uniF12F,
    uniF130,
    uniF131,
    uniF132,
    uniF133,
    uniF134,
    uniF135,
    uniF136,
    uniF137,
    uniF138,
    uniF139,
    uniF13A,
    uniF13B,
    uniF13C,
    uniF13D,
    uniF13E,
    uniF140,
    uniF141,
    uniF142,
    uniF143,
    uniF144,
    uniF145,
    uniF146,
    uniF147,
    uniF148,
    uniF149,
    uniF14A,
    uniF14B,
    uniF14C,
    uniF14D,
    uniF14E,
    uniF14F,
    uniF150,
    uniF151,
    newGlyph
);
}
);
date = "2014-04-03 03:31:45 +0000";
familyName = "MadeiraIcon";
fontMaster = (
{
ascender = 840;
capHeight = 0;
customParameters = (
{
name = TypoAscender;
value = 840;
},
{
name = TypoDescender;
value = "-120";
}
);
descender = "-120";
id = "8F1B665C-F854-4941-BE6D-BEE4265743FC";
weightValue = 400;
widthValue = 5;
xHeight = 0;
}
);
glyphs = (
{
glyphname = uniF110;
layers = (
{
layerId = "8F1B665C-F854-4941-BE6D-BEE4265743FC";
name = Regular;
paths = (
{
closed = 1;
nodes = (
"120 120 LINE SMOOTH",
"120 90 OFFCURVE",
"150 60 OFFCURVE",
"180.001 60 CURVE SMOOTH",
"210.001 60 OFFCURVE",
"720.002 270 OFFCURVE",
"750.002 300 CURVE SMOOTH",
"780.003 330 OFFCURVE",
"780.003 360 OFFCURVE",
"780.003 360 CURVE SMOOTH",
"780.003 360 OFFCURVE",
"780.003 390 OFFCURVE",
"750.002 420 CURVE SMOOTH",
"720.002 450 OFFCURVE",
"210.001 660.002 OFFCURVE",
"180.001 660.002 CURVE SMOOTH",
"150 660.002 OFFCURVE",
"120 630.002 OFFCURVE",
"120 600.002 CURVE SMOOTH"
);
}
);
width = 960;
}
);
unicode = F110;
},
{
glyphname = uniF111;
layers = (
{
layerId = "8F1B665C-F854-4941-BE6D-BEE4265743FC";
name = Regular;
paths = (
{
closed = 1;
nodes = (
"720.002 660.002 LINE SMOOTH",
"750.002 660.002 OFFCURVE",
"780.003 630.002 OFFCURVE",
"780.003 600.002 CURVE SMOOTH",
"780.003 120 LINE SMOOTH",
"780.003 90 OFFCURVE",
"750.002 60 OFFCURVE",
"720.002 60 CURVE SMOOTH",
"240.001 60 LINE SMOOTH",
"210.001 60 OFFCURVE",
"180.001 90 OFFCURVE",
"180.001 120 CURVE SMOOTH",
"180.001 600.002 LINE SMOOTH",
"180.001 630.002 OFFCURVE",
"210.001 660.002 OFFCURVE",
"240.001 660.002 CURVE SMOOTH"
);
}
);
width = 960;
}
);
unicode = F111;
},
{
glyphname = uniF112;
layers = (
{
layerId = "8F1B665C-F854-4941-BE6D-BEE4265743FC";
name = Regular;
paths = (
{
closed = 1;
nodes = (
"840.003 240.001 LINE",
"840.003 240.001 OFFCURVE",
"840.003 300 OFFCURVE",
"780.003 300 CURVE SMOOTH",
"180.001 300 LINE SMOOTH",
"180.001 300 OFFCURVE",
"120 300 OFFCURVE",
"120 240.001 CURVE SMOOTH",
"120 -120 LINE",
"48 -78 OFFCURVE",
"0 -24 OFFCURVE",
"0 60 CURVE SMOOTH",
"0 660.002 LINE SMOOTH",
"0 744.002 OFFCURVE",
"48 804.003 OFFCURVE",
"120 840.003 CURVE",
"120 480.002 LINE",
"120 480.002 OFFCURVE",
"120 420 OFFCURVE",
"180.001 420 CURVE SMOOTH",
"780.003 420 LINE",
"780.003 420 OFFCURVE",
"840.003 420 OFFCURVE",
"840.003 480.002 CURVE SMOOTH",
"840.003 840.003 LINE",
"912.003 804.003 OFFCURVE",
"960.003 744.002 OFFCURVE",
"960.003 660.002 CURVE SMOOTH",
"960.003 60 LINE SMOOTH",
"960.003 -24 OFFCURVE",
"912.003 -78 OFFCURVE",
"840.003 -120 CURVE"
);
},
{
closed = 1;
nodes = (
"360 480.002 LINE SMOOTH",
"360 480.002 OFFCURVE",
"300 480.002 OFFCURVE",
"300 540.002 CURVE SMOOTH",
"300 780.003 LINE",
"300 780.003 OFFCURVE",
"300 840.003 OFFCURVE",
"360 840.003 CURVE SMOOTH",
"720.002 840.003 LINE",
"720.002 840.003 OFFCURVE",
"780.003 840.003 OFFCURVE",
"780.003 780.003 CURVE SMOOTH",
"780.003 540.002 LINE SMOOTH",
"780.003 480.002 OFFCURVE",
"720.002 480.002 OFFCURVE",
"720.002 480.002 CURVE SMOOTH"
);
},
{
closed = 1;
nodes = (
"600.002 600.002 LINE SMOOTH",
"600.002 522.002 OFFCURVE",
"720.002 522.002 OFFCURVE",
"720.002 600.002 CURVE SMOOTH",
"720.002 720.002 LINE SMOOTH",
"720.002 798.003 OFFCURVE",
"600.002 798.003 OFFCURVE",
"600.002 720.002 CURVE SMOOTH"
);
},
{
closed = 1;
nodes = (
"720.002 240.001 LINE",
"720.002 240.001 OFFCURVE",
"780.003 240.001 OFFCURVE",
"780.003 180.001 CURVE SMOOTH",
"780.003 -60 LINE",
"780.003 -60 OFFCURVE",
"780.003 -120 OFFCURVE",
"720.002 -120 CURVE SMOOTH",
"240.001 -120 LINE SMOOTH",
"240.001 -120 OFFCURVE",
"180.001 -120 OFFCURVE",
"180.001 -60 CURVE SMOOTH",
"180.001 180.001 LINE",
"180.001 180.001 OFFCURVE",
"180.001 240.001 OFFCURVE",
"240.001 240.001 CURVE SMOOTH"
);
}
);
width = 960;
}
);
unicode = F112;
},
{
glyphname = uniF113;
layers = (
{
layerId = "8F1B665C-F854-4941-BE6D-BEE4265743FC";
name = Regular;
paths = (
{
closed = 1;
nodes = (
"60 660.002 LINE",
"480.002 840.003 LINE",
"900.003 660.002 LINE",
"900.003 540.002 LINE",
"480.002 360 LINE",
"60 540.002 LINE"
);
},
{
closed = 1;
nodes = (
"480.002 120 LINE",
"60 300 LINE",
"60 480.002 LINE",
"480.002 300 LINE",
"900.003 480.002 LINE",
"900.003 300 LINE"
);
},
{
closed = 1;
nodes = (
"480.002 -120 LINE",
"60 60 LINE",
"60 240.001 LINE",
"480.002 60 LINE",
"900.003 240.001 LINE",
"900.003 60 LINE"
);
}
);
width = 960;
}
);
unicode = F113;
},
{
glyphname = uniF114;
layers = (
{
layerId = "8F1B665C-F854-4941-BE6D-BEE4265743FC";
name = Regular;
paths = (
{
closed = 1;
nodes = (
"540.002 120 LINE SMOOTH",
"540.002 96 OFFCURVE",
"541.002 74 OFFCURVE",
"513.002 60 CURVE",
"493.002 54 OFFCURVE",
"464 68 OFFCURVE",
"445 80 CURVE SMOOTH",
"85 310 LINE",
"60 330 OFFCURVE",
"60 360 OFFCURVE",
"60 360 CURVE SMOOTH",
"60 360 OFFCURVE",
"60 390 OFFCURVE",
"85 410 CURVE",
"445 640.002 LINE SMOOTH",
"463 652.002 OFFCURVE",
"489.002 666.002 OFFCURVE",
"508.002 658.002 CURVE",
"540.002 640.002 OFFCURVE",
"540.002 619.002 OFFCURVE",
"540.002 600.002 CURVE SMOOTH",
"540.002 480.002 LINE",
"720.002 480.002 OFFCURVE",
"900.003 300 OFFCURVE",
"900.003 120 CURVE SMOOTH",
"900.003 60 OFFCURVE",
"895.003 43 OFFCURVE",
"888.003 0 CURVE",
"835.003 148 OFFCURVE",
"720.002 240.001 OFFCURVE",
"540.002 240.001 CURVE"
);
}
);
width = 960;
}
);
unicode = F114;
},
{
glyphname = uniF115;
layers = (
{
layerId = "8F1B665C-F854-4941-BE6D-BEE4265743FC";
name = Regular;
paths = (
{
closed = 1;
nodes = (
"420 600.002 LINE SMOOTH",
"420 619.002 OFFCURVE",
"420 640.002 OFFCURVE",
"452 658.002 CURVE",
"471.002 666.002 OFFCURVE",
"497.002 652.002 OFFCURVE",
"515.002 640.002 CURVE SMOOTH",
"875.003 410 LINE",
"900.003 390 OFFCURVE",
"900.003 360 OFFCURVE",
"900.003 360 CURVE SMOOTH",
"900.003 360 OFFCURVE",
"900.003 330 OFFCURVE",
"875.003 310 CURVE",
"515.002 80 LINE SMOOTH",
"496.002 68 OFFCURVE",
"467 54 OFFCURVE",
"447 60 CURVE",
"419 74 OFFCURVE",
"420 96 OFFCURVE",
"420 120 CURVE SMOOTH",
"420 240.001 LINE",
"240.001 240.001 OFFCURVE",
"125 148 OFFCURVE",
"72 0 CURVE",
"65 43 OFFCURVE",
"60 60 OFFCURVE",
"60 120 CURVE SMOOTH",
"60 300 OFFCURVE",
"240.001 480.002 OFFCURVE",
"420 480.002 CURVE"
);
}
);
width = 960;
}
);
unicode = F115;
},
{
glyphname = uniF116;
layers = (
{
layerId = "8F1B665C-F854-4941-BE6D-BEE4265743FC";
name = Regular;
paths = (
{
closed = 1;
nodes = (
"645.002 64 LINE",
"580.002 23 OFFCURVE",
"503.002 0 OFFCURVE",
"420 0 CURVE SMOOTH",
"188.001 0 OFFCURVE",
"0 188.001 OFFCURVE",
"0 420 CURVE SMOOTH",
"0 652.002 OFFCURVE",
"188.001 840.003 OFFCURVE",
"420 840.003 CURVE SMOOTH",
"652.002 840.003 OFFCURVE",
"840.003 652.002 OFFCURVE",
"840.003 420 CURVE SMOOTH",
"840.003 337 OFFCURVE",
"816.003 259 OFFCURVE",
"774.003 194.001 CURVE",
"934.003 30 LINE SMOOTH",
"968.003 -5 OFFCURVE",
"968.003 -60 OFFCURVE",
"934.003 -93 CURVE",
"901.003 -129 OFFCURVE",
"846.003 -127 OFFCURVE",
"811.003 -93 CURVE SMOOTH"
);
},
{
closed = 1;
nodes = (
"585.002 120 OFFCURVE",
"720.002 254.001 OFFCURVE",
"720.002 420 CURVE SMOOTH",
"720.002 586.002 OFFCURVE",
"585.002 720.002 OFFCURVE",
"420 720.002 CURVE SMOOTH",
"254.001 720.002 OFFCURVE",
"120 586.002 OFFCURVE",
"120 420 CURVE SMOOTH",
"120 254.001 OFFCURVE",
"254.001 120 OFFCURVE",
"420 120 CURVE SMOOTH"
);
},
{
closed = 1;
nodes = (
"480.002 360 LINE",
"480.002 300 LINE SMOOTH",
"480.002 255.001 OFFCURVE",
"450 240.001 OFFCURVE",
"420 240.001 CURVE SMOOTH",
"390 240.001 OFFCURVE",
"360 255.001 OFFCURVE",
"360 300 CURVE SMOOTH",
"360 360 LINE",
"300 360 LINE SMOOTH",
"255.001 360 OFFCURVE",
"240.001 390 OFFCURVE",
"240.001 420 CURVE SMOOTH",
"240.001 450 OFFCURVE",
"255.001 480.002 OFFCURVE",
"300 480.002 CURVE SMOOTH",
"360 480.002 LINE",
"360 540.002 LINE SMOOTH",
"360 585.002 OFFCURVE",
"390 600.002 OFFCURVE",
"420 600.002 CURVE SMOOTH",
"448 600.002 OFFCURVE",
"480.002 585.002 OFFCURVE",
"480.002 540.002 CURVE SMOOTH",
"480.002 480.002 LINE",
"540.002 480.002 LINE SMOOTH",
"585.002 480.002 OFFCURVE",
"600.002 450 OFFCURVE",
"600.002 420 CURVE SMOOTH",
"600.002 390 OFFCURVE",
"585.002 360 OFFCURVE",
"540.002 360 CURVE SMOOTH"
);
}
);
width = 960;
}
);
unicode = F116;
},
{
glyphname = uniF117;
layers = (
{
layerId = "8F1B665C-F854-4941-BE6D-BEE4265743FC";
name = Regular;
paths = (
{
closed = 1;
nodes = (
"645.002 64 LINE",
"580.002 23 OFFCURVE",
"503.002 0 OFFCURVE",
"420 0 CURVE SMOOTH",
"188.001 0 OFFCURVE",
"0 188.001 OFFCURVE",
"0 420 CURVE SMOOTH",
"0 652.002 OFFCURVE",
"188.001 840.003 OFFCURVE",
"420 840.003 CURVE SMOOTH",
"652.002 840.003 OFFCURVE",
"840.003 652.002 OFFCURVE",
"840.003 420 CURVE SMOOTH",
"840.003 337 OFFCURVE",
"816.003 259 OFFCURVE",
"774.003 194.001 CURVE",
"934.003 30 LINE SMOOTH",
"968.003 -5 OFFCURVE",
"968.003 -60 OFFCURVE",
"934.003 -93 CURVE",
"901.003 -129 OFFCURVE",
"846.003 -127 OFFCURVE",
"811.003 -93 CURVE SMOOTH"
);
},
{
closed = 1;
nodes = (
"585.002 120 OFFCURVE",
"720.002 254.001 OFFCURVE",
"720.002 420 CURVE SMOOTH",
"720.002 586.002 OFFCURVE",
"585.002 720.002 OFFCURVE",
"420 720.002 CURVE SMOOTH",
"254.001 720.002 OFFCURVE",
"120 586.002 OFFCURVE",
"120 420 CURVE SMOOTH",
"120 254.001 OFFCURVE",
"254.001 120 OFFCURVE",
"420 120 CURVE SMOOTH"
);
},
{
closed = 1;
nodes = (
"300 360 LINE SMOOTH",
"255.001 360 OFFCURVE",
"240.001 390 OFFCURVE",
"240.001 420 CURVE SMOOTH",
"240.001 450 OFFCURVE",
"255.001 480.002 OFFCURVE",
"300 480.002 CURVE SMOOTH",
"540.002 480.002 LINE SMOOTH",
"585.002 480.002 OFFCURVE",
"600.002 450 OFFCURVE",
"600.002 420 CURVE SMOOTH",
"600.002 390 OFFCURVE",
"585.002 360 OFFCURVE",
"540.002 360 CURVE SMOOTH"
);
}
);
width = 960;
}
);
unicode = F117;
},
{
glyphname = uniF118;
layers = (
{
layerId = "8F1B665C-F854-4941-BE6D-BEE4265743FC";
name = Regular;
paths = (
{
closed = 1;
nodes = (
"600.002 660.002 LINE",
"420 660.002 OFFCURVE",
"240.001 480.002 OFFCURVE",
"240.001 300 CURVE SMOOTH",
"240.001 258 OFFCURVE",
"243.001 225.001 OFFCURVE",
"252.001 180.001 CURVE",
"308 314 OFFCURVE",
"442 420 OFFCURVE",
"600.002 420 CURVE",
"600.002 360 LINE SMOOTH",
"600.002 330 OFFCURVE",
"620.002 300 OFFCURVE",
"660.002 300 CURVE SMOOTH",
"698.002 300 OFFCURVE",
"931.003 477.002 OFFCURVE",
"945.003 495.002 CURVE SMOOTH",
"960.003 515.002 OFFCURVE",
"960.003 540.002 OFFCURVE",
"960.003 540.002 CURVE SMOOTH",
"960.003 540.002 OFFCURVE",
"960.003 565.002 OFFCURVE",
"945.003 585.002 CURVE SMOOTH",
"930.003 605.002 OFFCURVE",
"700.002 780.003 OFFCURVE",
"660.002 780.003 CURVE SMOOTH",
"620.002 780.003 OFFCURVE",
"600.002 750.002 OFFCURVE",
"600.002 720.002 CURVE SMOOTH"
);
},
{
closed = 1;
nodes = (
"960.003 360 LINE",
"840.003 272 LINE",
"840.003 140 LINE SMOOTH",
"840.003 100 OFFCURVE",
"800.003 60 OFFCURVE",
"760.002 60 CURVE SMOOTH",
"200.001 60 LINE SMOOTH",
"160.001 60 OFFCURVE",
"120 100 OFFCURVE",
"120 140 CURVE SMOOTH",
"120 480.002 LINE",
"120 480.002 OFFCURVE",
"122 525.002 OFFCURVE",
"165.001 540.002 CURVE",
"240.001 660.002 LINE",
"180.001 660.002 LINE SMOOTH",
"60 660.002 OFFCURVE",
"0 542.002 OFFCURVE",
"0 480.002 CURVE SMOOTH",
"0 120 LINE SMOOTH",
"0 0 OFFCURVE",
"80 -60 OFFCURVE",
"180.001 -60 CURVE SMOOTH",
"780.003 -60 LINE SMOOTH",
"880.003 -60 OFFCURVE",
"960.003 0 OFFCURVE",
"960.003 120 CURVE SMOOTH"
);
}
);
width = 960;
}
);
unicode = F118;
},
{
glyphname = uniF119;
layers = (
{
layerId = "8F1B665C-F854-4941-BE6D-BEE4265743FC";
name = Regular;
paths = (
{
closed = 1;
nodes = (
"900.003 240.001 LINE",
"900.003 480.002 LINE",
"600.002 480.002 LINE",
"600.002 780.003 LINE",
"360 780.003 LINE",
"360 480.002 LINE",
"60 480.002 LINE",
"60 240.001 LINE",
"360 240.001 LINE",
"360 -60 LINE",
"600.002 -60 LINE",
"600.002 240.001 LINE"
);
}
);
width = 960;
}
);
unicode = F119;
},
{
glyphname = uniF11A;
layers = (
{
layerId = "8F1B665C-F854-4941-BE6D-BEE4265743FC";
name = Regular;
paths = (
{
closed = 1;
nodes = (
"120 840.003 LINE SMOOTH",
"60 840.003 OFFCURVE",
"0 780.003 OFFCURVE",
"0 720.002 CURVE SMOOTH",
"0 0 LINE SMOOTH",
"0 -60 OFFCURVE",
"60 -120 OFFCURVE",
"120 -120 CURVE SMOOTH",
"840.003 -120 LINE SMOOTH",
"900.003 -120 OFFCURVE",
"960.003 -60 OFFCURVE",
"960.003 0 CURVE SMOOTH",
"960.003 720.002 LINE SMOOTH",
"960.003 780.003 OFFCURVE",
"900.003 840.003 OFFCURVE",
"840.003 840.003 CURVE SMOOTH"
);
},
{
closed = 1;
nodes = (
"840.003 70 LINE",
"840.003 70 OFFCURVE",
"830.003 0 OFFCURVE",
"770.003 0 CURVE SMOOTH",
"190.001 0 LINE SMOOTH",
"130 0 OFFCURVE",
"120 70 OFFCURVE",
"120 70 CURVE",
"120 650.002 LINE",
"120 650.002 OFFCURVE",
"130 720.002 OFFCURVE",
"190.001 720.002 CURVE SMOOTH",
"770.003 720.002 LINE SMOOTH",
"830.003 720.002 OFFCURVE",
"840.003 650.002 OFFCURVE",
"840.003 650.002 CURVE"
);
},
{
closed = 1;
nodes = (
"540.002 420 LINE",
"540.002 600.002 LINE",
"420 600.002 LINE",
"420 420 LINE",
"240.001 420 LINE",
"240.001 300 LINE",
"420 300 LINE",
"420 120 LINE",
"540.002 120 LINE",
"540.002 300 LINE",
"720.002 300 LINE",
"720.002 420 LINE"
);
}
);
width = 960;
}
);
unicode = F11A;
},
{
glyphname = uniF11B;
layers = (
{
layerId = "8F1B665C-F854-4941-BE6D-BEE4265743FC";
name = Regular;
paths = (
{
closed = 1;
nodes = (
"120 45 LINE",
"57 96 OFFCURVE",
"0 180.001 OFFCURVE",
"0 240.001 CURVE SMOOTH",
"0 660.002 LINE",
"0 660.002 OFFCURVE",
"0 840.003 OFFCURVE",
"180.001 840.003 CURVE SMOOTH",
"600.002 840.003 LINE SMOOTH",
"660.002 840.003 OFFCURVE",
"747.002 797.003 OFFCURVE",
"800.003 720.002 CURVE",
"270 720.002 LINE SMOOTH",
"180.001 720.002 OFFCURVE",
"120 660.002 OFFCURVE",
"120 570.002 CURVE SMOOTH"
);
},
{
closed = 1;
nodes = (
"840.003 -120 LINE SMOOTH",
"900.003 -120 OFFCURVE",
"960.003 -60 OFFCURVE",
"960.003 0 CURVE SMOOTH",
"960.003 540.002 LINE SMOOTH",
"960.003 600.002 OFFCURVE",
"900.003 660.002 OFFCURVE",
"840.003 660.002 CURVE SMOOTH",
"300 660.002 LINE SMOOTH",
"240.001 660.002 OFFCURVE",
"180.001 600.002 OFFCURVE",
"180.001 540.002 CURVE SMOOTH",
"180.001 0 LINE SMOOTH",
"180.001 -60 OFFCURVE",
"240.001 -120 OFFCURVE",
"300 -120 CURVE SMOOTH"
);
},
{
closed = 1;
nodes = (
"840.003 240.001 LINE",
"660.002 240.001 LINE SMOOTH",
"600.002 240.001 OFFCURVE",
"600.002 180.001 OFFCURVE",
"600.002 180.001 CURVE",
"600.002 0 LINE",
"360 0 LINE SMOOTH",
"300 0 OFFCURVE",
"300 60 OFFCURVE",
"300 60 CURVE",
"300 480.002 LINE",
"300 480.002 OFFCURVE",
"300 540.002 OFFCURVE",
"360 540.002 CURVE SMOOTH",
"780.003 540.002 LINE SMOOTH",
"840.003 540.002 OFFCURVE",
"840.003 480.002 OFFCURVE",
"840.003 480.002 CURVE"
);
},
{
closed = 1;
nodes = (
"720.002 0 LINE",
"720.002 120 LINE",
"840.003 120 LINE",
"840.003 60 LINE",
"840.003 60 OFFCURVE",
"840.003 0 OFFCURVE",
"780.003 0 CURVE SMOOTH"
);
}
);
width = 960;
}
);
unicode = F11B;
},
{
glyphname = uniF11C;
layers = (
{
layerId = "8F1B665C-F854-4941-BE6D-BEE4265743FC";
name = Regular;
paths = (
{
closed = 1;
nodes = (
"662.002 720.002 LINE",
"651.002 795.003 LINE SMOOTH",
"649.002 809.003 OFFCURVE",
"644.002 818.003 OFFCURVE",
"634.002 827.003 CURVE",
"625.002 836.003 OFFCURVE",
"614.002 840.003 OFFCURVE",
"600.002 840.003 CURVE SMOOTH",
"360 840.003 LINE SMOOTH",
"347 840.003 OFFCURVE",
"336 836.003 OFFCURVE",
"326 827.003 CURVE",
"317 818.003 OFFCURVE",
"311 809.003 OFFCURVE",
"310 795.003 CURVE",
"299 720.002 LINE",
"210.001 720.002 LINE SMOOTH",
"185.001 720.002 OFFCURVE",
"163.001 711.002 OFFCURVE",
"146 694.002 CURVE SMOOTH",
"129 677.002 OFFCURVE",
"120 655.002 OFFCURVE",
"120 630.002 CURVE SMOOTH",
"120 600.002 LINE",
"840.003 600.002 LINE",
"840.003 630.002 LINE SMOOTH",
"840.003 655.002 OFFCURVE",
"831.003 677.002 OFFCURVE",
"814.003 694.002 CURVE SMOOTH",
"797.003 711.002 OFFCURVE",
"775.003 720.002 OFFCURVE",
"750.002 720.002 CURVE SMOOTH"
);
},
{
closed = 1;
nodes = (
"360 720.002 LINE",
"368 780.003 LINE",
"593.002 780.003 LINE",
"601.002 720.002 LINE"
);
},
{
closed = 1;
nodes = (
"195.001 540.002 LINE SMOOTH",
"178.001 540.002 OFFCURVE",
"165.001 535.002 OFFCURVE",
"155.001 524.002 CURVE",
"144 510.002 OFFCURVE",
"139 497.002 OFFCURVE",
"140 480.002 CURVE SMOOTH",
"189.001 -60 LINE SMOOTH",
"191.001 -77 OFFCURVE",
"199.001 -90 OFFCURVE",
"211.001 -101 CURVE",
"225.001 -115 OFFCURVE",
"238.001 -120 OFFCURVE",
"255.001 -120 CURVE SMOOTH",
"705.002 -120 LINE SMOOTH",
"722.002 -120 OFFCURVE",
"737.002 -115 OFFCURVE",
"750.002 -101 CURVE",
"764.002 -90 OFFCURVE",
"769.003 -77 OFFCURVE",
"771.003 -60 CURVE SMOOTH",
"820.003 480.002 LINE SMOOTH",
"821.003 497.002 OFFCURVE",
"816.003 510.002 OFFCURVE",
"806.003 524.002 CURVE",
"795.003 535.002 OFFCURVE",
"782.003 540.002 OFFCURVE",
"765.002 540.002 CURVE SMOOTH"
);
},
{
closed = 1;
nodes = (
"360 420 LINE",
"360 0 LINE",
"270 0 LINE",
"240.001 420 LINE"
);
},
{
closed = 1;
nodes = (
"540.002 420 LINE",
"540.002 0 LINE",
"420 0 LINE",
"420 420 LINE"
);
},
{
closed = 1;
nodes = (
"720.002 420 LINE",
"690.002 0 LINE",
"600.002 0 LINE",
"600.002 420 LINE"
);
}
);
width = 960;
}
);
unicode = F11C;
},
{
glyphname = uniF11D;
layers = (
{
layerId = "8F1B665C-F854-4941-BE6D-BEE4265743FC";
name = Regular;
paths = (
{
closed = 1;
nodes = (
"0 720.002 LINE SMOOTH",
"0 780.003 OFFCURVE",
"60 780.003 OFFCURVE",
"60 780.003 CURVE",
"900.003 780.003 LINE SMOOTH",
"960.003 780.003 OFFCURVE",
"960.003 720.002 OFFCURVE",
"960.003 720.002 CURVE",
"960.003 0 LINE",
"960.003 0 OFFCURVE",
"960.003 -60 OFFCURVE",
"900.003 -60 CURVE SMOOTH",
"60 -60 LINE SMOOTH",
"0 -60 OFFCURVE",
"0 0 OFFCURVE",
"0 0 CURVE"
);
},
{
closed = 1;
nodes = (
"120 59 LINE",
"840.003 59 LINE",
"840.003 659.002 LINE",
"120 659.002 LINE"
);
},
{
closed = 1;
nodes = (
"320 420 OFFCURVE",
"360 460 OFFCURVE",
"360 510.002 CURVE SMOOTH",
"360 560.002 OFFCURVE",
"320 600.002 OFFCURVE",
"270 600.002 CURVE SMOOTH",
"220.001 600.002 OFFCURVE",
"180.001 560.002 OFFCURVE",
"180.001 510.002 CURVE SMOOTH",
"180.001 460 OFFCURVE",
"220.001 420 OFFCURVE",
"270 420 CURVE SMOOTH"
);
},
{
closed = 1;
nodes = (
"180.001 119 LINE",
"180.001 359 LINE",
"353 239.001 LINE",
"600.002 539.002 LINE",
"780.003 239.001 LINE",
"780.003 119 LINE"
);
}
);
width = 960;
}
);
unicode = F11D;
},
{
glyphname = uniF11E;
layers = (
{
layerId = "8F1B665C-F854-4941-BE6D-BEE4265743FC";
name = Regular;
paths = (
{
closed = 1;
nodes = (
"600.002 -120 LINE",
"0 -120 LINE",
"0 660.002 LINE SMOOTH",
"0 720.002 OFFCURVE",
"0 840.003 OFFCURVE",
"180.001 840.003 CURVE SMOOTH",
"750.002 840.003 LINE SMOOTH",
"866.003 840.003 OFFCURVE",
"960.003 746.002 OFFCURVE",
"960.003 630.002 CURVE SMOOTH",
"960.003 514.002 OFFCURVE",
"866.003 420 OFFCURVE",
"750.002 420 CURVE SMOOTH",
"690.002 420 OFFCURVE",
"638.002 444 OFFCURVE",
"600.002 484.002 CURVE"
);
},
{
closed = 1;
nodes = (
"816.003 510.002 OFFCURVE",
"870.003 564.002 OFFCURVE",
"870.003 630.002 CURVE SMOOTH",
"870.003 696.002 OFFCURVE",
"816.003 750.002 OFFCURVE",
"750.002 750.002 CURVE SMOOTH",
"684.002 750.002 OFFCURVE",
"630.002 696.002 OFFCURVE",
"630.002 630.002 CURVE SMOOTH",
"630.002 564.002 OFFCURVE",
"684.002 510.002 OFFCURVE",
"750.002 510.002 CURVE SMOOTH"
);
},
{
closed = 1;
nodes = (
"480.002 0 LINE",
"480.002 664.002 LINE",
"489.002 684.002 OFFCURVE",
"515.002 710.002 OFFCURVE",
"540.002 720.002 CURVE",
"180.001 720.002 LINE SMOOTH",
"120 720.002 OFFCURVE",
"120 660.002 OFFCURVE",
"120 660.002 CURVE",
"120 0 LINE"
);
},
{
closed = 1;
nodes = (
"180.001 600.002 LINE",
"180.001 660.002 LINE",
"420 660.002 LINE",
"420 600.002 LINE"
);
},
{
closed = 1;
nodes = (
"180.001 420 LINE",
"180.001 480.002 LINE",
"420 480.002 LINE",
"420 420 LINE"
);
},
{
closed = 1;
nodes = (
"180.001 240.001 LINE",
"180.001 300 LINE",
"420 300 LINE",
"420 240.001 LINE"
);
},
{
closed = 1;
nodes = (
"180.001 60 LINE",
"180.001 120 LINE",
"420 120 LINE",
"420 60 LINE"
);
}
);
width = 960;
}
);
unicode = F11E;
},
{
glyphname = uniF11F;
layers = (
{
layerId = "8F1B665C-F854-4941-BE6D-BEE4265743FC";
name = Regular;
paths = (
{
closed = 1;
nodes = (
"120 660.002 LINE",
"420 360 LINE",
"120 60 LINE",
"300 -120 LINE",
"780.003 360 LINE",
"300 840.003 LINE"
);
}
);
width = 960;
}
);
unicode = F11F;
},
{
glyphname = uniF120;
layers = (
{
layerId = "8F1B665C-F854-4941-BE6D-BEE4265743FC";
name = Regular;
paths = (
{
closed = 1;
nodes = (
"780.003 60 LINE",
"480.002 360 LINE",
"780.003 660.002 LINE",
"600.002 840.003 LINE",
"120 360 LINE",
"600.002 -120 LINE"
);
}
);
width = 960;
}
);
unicode = F120;
},
{
glyphname = uniF121;
layers = (
{
layerId = "8F1B665C-F854-4941-BE6D-BEE4265743FC";
name = Regular;
paths = (
{
closed = 1;
nodes = (
"180.001 478.002 LINE",
"480.002 120 LINE",
"780.003 478.002 LINE"
);
}
);
width = 960;
}
);
unicode = F121;
},
{
glyphname = uniF122;
layers = (
{
layerId = "8F1B665C-F854-4941-BE6D-BEE4265743FC";
name = Regular;
paths = (
{
closed = 1;
nodes = (
"129 328 OFFCURVE",
"120 374 OFFCURVE",
"120 420 CURVE SMOOTH",
"120 512.002 OFFCURVE",
"155.001 605.002 OFFCURVE",
"225.001 675.002 CURVE SMOOTH",
"295 745.002 OFFCURVE",
"388 780.003 OFFCURVE",
"480.002 780.003 CURVE SMOOTH",
"572.002 780.003 OFFCURVE",
"665.002 745.002 OFFCURVE",
"735.002 675.002 CURVE SMOOTH",
"805.003 604.002 OFFCURVE",
"840.003 512.002 OFFCURVE",
"840.003 420 CURVE SMOOTH",
"840.003 328 OFFCURVE",
"805.003 236.001 OFFCURVE",
"735.002 165.001 CURVE SMOOTH",
"665.002 95 OFFCURVE",
"572.002 60 OFFCURVE",
"480.002 60 CURVE SMOOTH",
"388 60 OFFCURVE",
"295 95 OFFCURVE",
"225.001 165.001 CURVE SMOOTH",
"190.001 200.001 OFFCURVE",
"164.001 240.001 OFFCURVE",
"146 284 CURVE SMOOTH"
);
},
{
closed = 1;
nodes = (
"559.002 420 LINE",
"648.002 509.002 LINE SMOOTH",
"653.002 514.002 OFFCURVE",
"653.002 523.002 OFFCURVE",
"648.002 528.002 CURVE SMOOTH",
"588.002 588.002 LINE SMOOTH",
"583.002 593.002 OFFCURVE",
"574.002 593.002 OFFCURVE",
"569.002 588.002 CURVE SMOOTH",
"480.002 499.002 LINE",
"391 588.002 LINE SMOOTH",
"386 593.002 OFFCURVE",
"377 593.002 OFFCURVE",
"372 588.002 CURVE SMOOTH",
"312 528.002 LINE SMOOTH",
"307 523.002 OFFCURVE",
"307 514.002 OFFCURVE",
"312 509.002 CURVE SMOOTH",
"401 420 LINE",
"312 331 LINE SMOOTH",
"307 326 OFFCURVE",
"307 317 OFFCURVE",
"312 312 CURVE SMOOTH",
"372 252.001 LINE SMOOTH",
"377 247.001 OFFCURVE",
"386 247.001 OFFCURVE",
"391 252.001 CURVE SMOOTH",
"480.002 341 LINE",
"569.002 252.001 LINE SMOOTH",
"574.002 247.001 OFFCURVE",
"583.002 247.001 OFFCURVE",
"588.002 252.001 CURVE SMOOTH",
"648.002 312 LINE SMOOTH",
"653.002 317 OFFCURVE",
"653.002 326 OFFCURVE",
"648.002 331 CURVE SMOOTH"
);
}
);
width = 960;
}
);
unicode = F122;
},
{
glyphname = uniF123;
layers = (
{
layerId = "8F1B665C-F854-4941-BE6D-BEE4265743FC";
name = Regular;
paths = (
{
closed = 1;
nodes = (
"315 370 LINE",
"150 205.001 LINE SMOOTH",
"129 184.001 OFFCURVE",
"119 157.001 OFFCURVE",
"119 123 CURVE SMOOTH",
"119 88 OFFCURVE",
"129 61 OFFCURVE",
"150 40 CURVE SMOOTH",
"171.001 19 OFFCURVE",
"198.001 9 OFFCURVE",
"233.001 9 CURVE SMOOTH",
"267 9 OFFCURVE",
"294 19 OFFCURVE",
"315 40 CURVE SMOOTH",
"480.002 205.001 LINE",
"645.002 40 LINE SMOOTH",
"666.002 19 OFFCURVE",
"693.002 9 OFFCURVE",
"728.002 9 CURVE SMOOTH",
"762.002 9 OFFCURVE",
"789.003 19 OFFCURVE",
"810.003 40 CURVE SMOOTH",
"831.003 61 OFFCURVE",
"841.003 88 OFFCURVE",
"841.003 123 CURVE SMOOTH",
"841.003 157.001 OFFCURVE",
"831.003 184.001 OFFCURVE",
"810.003 205.001 CURVE SMOOTH",
"645.002 370 LINE",
"810.003 535.002 LINE SMOOTH",
"831.003 556.002 OFFCURVE",
"841.003 583.002 OFFCURVE",
"841.003 618.002 CURVE SMOOTH",
"841.003 652.002 OFFCURVE",
"831.003 679.002 OFFCURVE",
"810.003 700.002 CURVE SMOOTH",
"789.003 721.002 OFFCURVE",
"762.002 731.002 OFFCURVE",
"728.002 731.002 CURVE SMOOTH",
"693.002 731.002 OFFCURVE",
"666.002 721.002 OFFCURVE",
"645.002 700.002 CURVE SMOOTH",
"480.002 535.002 LINE",
"315 700.002 LINE SMOOTH",
"294 721.002 OFFCURVE",
"267 731.002 OFFCURVE",
"233.001 731.002 CURVE SMOOTH",
"198.001 731.002 OFFCURVE",
"171.001 721.002 OFFCURVE",
"150 700.002 CURVE SMOOTH",
"129 679.002 OFFCURVE",
"119 652.002 OFFCURVE",
"119 618.002 CURVE SMOOTH",
"119 583.002 OFFCURVE",
"129 556.002 OFFCURVE",
"150 535.002 CURVE SMOOTH"
);
}
);
width = 960;
}
);
unicode = F123;
},
{
glyphname = uniF124;
layers = (
{
layerId = "8F1B665C-F854-4941-BE6D-BEE4265743FC";
name = Regular;
paths = (
{
closed = 1;
nodes = (
"120 660.002 LINE",
"120 60 LINE",
"540.002 360 LINE"
);
}
);
width = 600;
}
);
unicode = F124;
},
{
glyphname = uniF125;
layers = (
{
layerId = "8F1B665C-F854-4941-BE6D-BEE4265743FC";
name = Regular;
paths = (
{
closed = 1;
nodes = (
"540.002 660.002 LINE",
"540.002 60 LINE",
"120 360 LINE"
);
}
);
width = 600;
}
);
unicode = F125;
},
{
glyphname = uniF126;
layers = (
{
layerId = "8F1B665C-F854-4941-BE6D-BEE4265743FC";
name = Regular;
paths = (
{
closed = 1;
nodes = (
"559.002 360 LINE",
"648.002 449 LINE SMOOTH",
"653.002 454 OFFCURVE",
"653.002 463 OFFCURVE",
"648.002 468 CURVE SMOOTH",
"588.002 528.002 LINE SMOOTH",
"583.002 533.002 OFFCURVE",
"574.002 533.002 OFFCURVE",
"569.002 528.002 CURVE SMOOTH",
"480.002 439 LINE",
"391 528.002 LINE SMOOTH",
"386 533.002 OFFCURVE",
"377 533.002 OFFCURVE",
"372 528.002 CURVE SMOOTH",
"312 468 LINE SMOOTH",
"307 463 OFFCURVE",
"307 454 OFFCURVE",
"312 449 CURVE SMOOTH",
"401 360 LINE",
"312 271 LINE SMOOTH",
"307 266 OFFCURVE",
"307 257 OFFCURVE",
"312 252.001 CURVE SMOOTH",
"372 192.001 LINE SMOOTH",
"377 187.001 OFFCURVE",
"386 187.001 OFFCURVE",
"391 192.001 CURVE SMOOTH",
"480.002 281 LINE",
"569.002 192.001 LINE SMOOTH",
"574.002 187.001 OFFCURVE",
"583.002 187.001 OFFCURVE",
"588.002 192.001 CURVE SMOOTH",
"648.002 252.001 LINE SMOOTH",
"653.002 257 OFFCURVE",
"653.002 266 OFFCURVE",
"648.002 271 CURVE SMOOTH"
);
}
);
width = 960;
}
);
unicode = F126;
},
{
glyphname = uniF127;
layers = (
{
layerId = "8F1B665C-F854-4941-BE6D-BEE4265743FC";
name = Regular;
paths = (
{
closed = 1;
nodes = (
"120 520.002 OFFCURVE",
"160.001 610.002 OFFCURVE",
"225.001 675.002 CURVE SMOOTH",
"290 740.002 OFFCURVE",
"381 780.003 OFFCURVE",
"480.002 780.003 CURVE SMOOTH",
"580.002 780.003 OFFCURVE",
"670.002 740.002 OFFCURVE",
"735.002 675.002 CURVE SMOOTH",
"800.003 610.002 OFFCURVE",
"840.003 520.002 OFFCURVE",
"840.003 420 CURVE SMOOTH",
"840.003 320 OFFCURVE",
"800.003 230.001 OFFCURVE",
"735.002 165.001 CURVE SMOOTH",
"670.002 100 OFFCURVE",
"580.002 60 OFFCURVE",
"480.002 60 CURVE SMOOTH",
"381 60 OFFCURVE",
"290 100 OFFCURVE",
"225.001 165.001 CURVE SMOOTH",
"160.001 230.001 OFFCURVE",
"120 320 OFFCURVE",
"120 420 CURVE SMOOTH"
);
},
{
closed = 1;
nodes = (
"421 590.002 LINE SMOOTH",
"421 583.002 OFFCURVE",
"428 576.002 OFFCURVE",
"436 576.002 CURVE SMOOTH",
"527.002 576.002 LINE SMOOTH",
"535.002 576.002 OFFCURVE",
"541.002 583.002 OFFCURVE",
"541.002 590.002 CURVE SMOOTH",
"541.002 670.002 LINE SMOOTH",
"541.002 679.002 OFFCURVE",
"536.002 684.002 OFFCURVE",
"527.002 684.002 CURVE SMOOTH",
"436 684.002 LINE SMOOTH",
"428 684.002 OFFCURVE",
"421 677.002 OFFCURVE",
"421 670.002 CURVE SMOOTH"
);
},
{
closed = 1;
nodes = (
"378 477.002 LINE SMOOTH",
"378 468 OFFCURVE",
"383 464 OFFCURVE",
"391 464 CURVE SMOOTH",
"430 464 LINE",
"430 263 LINE",
"395 263 LINE SMOOTH",
"388 263 OFFCURVE",
"381 257 OFFCURVE",
"381 250.001 CURVE SMOOTH",
"381 194.001 LINE SMOOTH",
"381 187.001 OFFCURVE",
"388 180.001 OFFCURVE",
"395 180.001 CURVE SMOOTH",
"576.002 180.001 LINE SMOOTH",
"583.002 180.001 OFFCURVE",
"589.002 187.001 OFFCURVE",
"589.002 194.001 CURVE SMOOTH",
"589.002 250.001 LINE SMOOTH",
"589.002 259 OFFCURVE",
"585.002 263 OFFCURVE",
"576.002 263 CURVE SMOOTH",
"541.002 263 LINE",
"541.002 525.002 LINE SMOOTH",
"541.002 532.002 OFFCURVE",
"536.002 539.002 OFFCURVE",
"528.002 539.002 CURVE SMOOTH",
"391 539.002 LINE SMOOTH",
"384 539.002 OFFCURVE",
"378 533.002 OFFCURVE",
"378 525.002 CURVE SMOOTH"
);
}
);
width = 960;
}
);
unicode = F127;
},
{
glyphname = uniF128;
layers = (
{
layerId = "8F1B665C-F854-4941-BE6D-BEE4265743FC";
name = Regular;
paths = (
{
closed = 1;
nodes = (
"675.002 495.002 LINE SMOOTH",
"675.002 556.002 OFFCURVE",
"650.002 614.002 OFFCURVE",
"609.002 654.002 CURVE SMOOTH",
"569.002 695.002 OFFCURVE",
"511.002 720.002 OFFCURVE",
"450 720.002 CURVE SMOOTH",
"368 720.002 OFFCURVE",
"296 677.002 OFFCURVE",
"255.001 608.002 CURVE SMOOTH",
"235.001 573.002 OFFCURVE",
"225.001 536.002 OFFCURVE",
"225.001 495.002 CURVE SMOOTH",
"225.001 405 LINE",
"200.001 405 OFFCURVE",
"180.001 385 OFFCURVE",
"180.001 360 CURVE SMOOTH",
"180.001 45 LINE SMOOTH",
"180.001 20 OFFCURVE",
"200.001 0 OFFCURVE",
"225.001 0 CURVE SMOOTH",
"675.002 0 LINE SMOOTH",
"700.002 0 OFFCURVE",
"720.002 20 OFFCURVE",
"720.002 45 CURVE SMOOTH",
"720.002 360 LINE SMOOTH",
"720.002 385 OFFCURVE",
"700.002 405 OFFCURVE",
"675.002 405 CURVE"
);
},
{
closed = 1;
nodes = (
"585.002 405 LINE",
"315 405 LINE",
"315 495.002 LINE SMOOTH",
"315 569.002 OFFCURVE",
"375 630.002 OFFCURVE",
"450 630.002 CURVE SMOOTH",
"525.002 630.002 OFFCURVE",
"585.002 569.002 OFFCURVE",
"585.002 495.002 CURVE SMOOTH"
);
},
{
closed = 1;
nodes = (
"518.002 111 LINE",
"518.002 98 OFFCURVE",
"508.002 87 OFFCURVE",
"495.002 87 CURVE SMOOTH",
"404 87 LINE SMOOTH",
"391 87 OFFCURVE",
"381 98 OFFCURVE",
"381 111 CURVE",
"410 213.001 LINE",
"410 216.001 OFFCURVE",
"411 219.001 OFFCURVE",
"412 222.001 CURVE",
"400 232.001 OFFCURVE",
"392 248.001 OFFCURVE",
"392 266 CURVE SMOOTH",
"392 297 OFFCURVE",
"418 323 OFFCURVE",
"450 323 CURVE SMOOTH",
"482.002 323 OFFCURVE",
"508.002 298 OFFCURVE",
"508.002 266 CURVE SMOOTH",
"508.002 248.001 OFFCURVE",
"500.002 232.001 OFFCURVE",
"487.002 221.001 CURVE",
"488.002 219.001 OFFCURVE",
"489.002 216.001 OFFCURVE",
"489.002 214.001 CURVE"
);
}
);
width = 960;
}
);
unicode = F128;
},
{
glyphname = uniF129;
layers = (
{
layerId = "8F1B665C-F854-4941-BE6D-BEE4265743FC";
name = Regular;
paths = (
{
closed = 1;
nodes = (
"780.003 34 LINE",
"780.003 15 OFFCURVE",
"767.002 0 OFFCURVE",
"749.002 0 CURVE SMOOTH",
"212.001 0 LINE SMOOTH",
"194.001 0 OFFCURVE",
"180.001 15 OFFCURVE",
"180.001 34 CURVE",
"224.001 160.001 LINE",
"227.001 178.001 OFFCURVE",
"269 291 OFFCURVE",
"447 299 CURVE",
"374 317 OFFCURVE",
"321 401 OFFCURVE",
"321 485.002 CURVE SMOOTH",
"321 580.002 OFFCURVE",
"392 660.002 OFFCURVE",
"480.002 660.002 CURVE SMOOTH",
"568.002 660.002 OFFCURVE",
"639.002 580.002 OFFCURVE",
"639.002 485.002 CURVE SMOOTH",
"639.002 401 OFFCURVE",
"584.002 317 OFFCURVE",
"513.002 299 CURVE",
"691.002 291 OFFCURVE",
"733.002 178.001 OFFCURVE",
"736.002 160.001 CURVE"
);
}
);
width = 960;
}
);
unicode = F129;
},
{
glyphname = uniF12A;
layers = (
{
layerId = "8F1B665C-F854-4941-BE6D-BEE4265743FC";
name = Regular;
paths = (
{
closed = 1;
nodes = (
"137 360 LINE SMOOTH",
"137 498.002 OFFCURVE",
"221.001 622.002 OFFCURVE",
"346 675.002 CURVE",
"344 688.002 OFFCURVE",
"343 697.002 OFFCURVE",
"343 703.002 CURVE SMOOTH",
"343 777.003 OFFCURVE",
"403 840.003 OFFCURVE",
"480.002 840.003 CURVE SMOOTH",
"557.002 840.003 OFFCURVE",
"617.002 777.003 OFFCURVE",
"617.002 703.002 CURVE SMOOTH",
"617.002 694.002 OFFCURVE",
"616.002 685.002 OFFCURVE",
"614.002 675.002 CURVE",
"739.002 622.002 OFFCURVE",
"823.003 498.002 OFFCURVE",
"823.003 360 CURVE SMOOTH",
"823.003 199.001 LINE",
"869.003 163.001 OFFCURVE",
"891.003 127 OFFCURVE",
"891.003 86 CURVE SMOOTH",
"891.003 48 OFFCURVE",
"873.003 14 OFFCURVE",
"837.003 -18 CURVE SMOOTH",
"763.002 -80 OFFCURVE",
"630.002 -120 OFFCURVE",
"480.002 -120 CURVE SMOOTH",
"406 -120 OFFCURVE",
"337 -111 OFFCURVE",
"273 -93 CURVE SMOOTH",
"147 -56 OFFCURVE",
"69 11 OFFCURVE",
"69 86 CURVE SMOOTH",
"69 127 OFFCURVE",
"91 163.001 OFFCURVE",
"137 199.001 CURVE"
);
},
{
closed = 1;
nodes = (
"530.002 -51 OFFCURVE",
"576.002 -46 OFFCURVE",
"617.002 -33 CURVE SMOOTH",
"701.002 -9 OFFCURVE",
"754.002 35 OFFCURVE",
"754.002 86 CURVE SMOOTH",
"754.002 110 OFFCURVE",
"742.002 133 OFFCURVE",
"718.002 154 CURVE SMOOTH",
"669.002 197.001 OFFCURVE",
"579.002 223.001 OFFCURVE",
"480.002 223.001 CURVE SMOOTH",
"430 223.001 OFFCURVE",
"384 217.001 OFFCURVE",
"343 205.001 CURVE SMOOTH",
"259 181.001 OFFCURVE",
"206.001 135 OFFCURVE",
"206.001 86 CURVE SMOOTH",
"206.001 62 OFFCURVE",
"218.001 39 OFFCURVE",
"242.001 17 CURVE SMOOTH",
"291 -25 OFFCURVE",
"381 -51 OFFCURVE",
"480.002 -51 CURVE SMOOTH"
);
},
{
closed = 1;
nodes = (
"415 17 OFFCURVE",
"358 64 OFFCURVE",
"346 128 CURVE",
"379 144 OFFCURVE",
"416 151 OFFCURVE",
"453 153 CURVE SMOOTH",
"465 154 OFFCURVE",
"477.002 154 OFFCURVE",
"489.002 154 CURVE SMOOTH",
"525.002 153 OFFCURVE",
"559.002 149 OFFCURVE",
"591.002 137 CURVE",
"603.002 133 OFFCURVE",
"605.002 133 OFFCURVE",
"614.002 128 CURVE",
"602.002 64 OFFCURVE",
"545.002 17 OFFCURVE",
"480.002 17 CURVE SMOOTH"
);
}
);
width = 960;
}
);
unicode = F12A;
},
{
glyphname = uniF12B;
layers = (
{
layerId = "8F1B665C-F854-4941-BE6D-BEE4265743FC";
name = Regular;
paths = (
{
closed = 1;
nodes = (
"129 660.002 LINE SMOOTH",
"91 660.002 OFFCURVE",
"60 633.002 OFFCURVE",
"60 600.002 CURVE",
"426 280 LINE SMOOTH",
"473.002 240.001 OFFCURVE",
"548.002 240.001 OFFCURVE",
"594.002 280 CURVE SMOOTH",
"960.003 600.002 LINE",
"960.003 633.002 OFFCURVE",
"929.003 660.002 OFFCURVE",
"891.003 660.002 CURVE SMOOTH"
);
},
{
closed = 1;
nodes = (
"314 318 LINE",
"60 539.002 LINE",
"60 120 LINE SMOOTH",
"60 113 OFFCURVE",
"61 106 OFFCURVE",
"65 99 CURVE"
);
},
{
closed = 1;
nodes = (
"960.003 539.002 LINE",
"706.002 318 LINE",
"955.003 99 LINE",
"959.003 106 OFFCURVE",
"960.003 113 OFFCURVE",
"960.003 120 CURVE SMOOTH"
);
},
{
closed = 1;
nodes = (
"703.002 314 LINE",
"704.002 314 LINE",
"705.002 315 LINE"
);
},
{
closed = 1;
nodes = (
"668.002 284 LINE",
"629.002 249.001 LINE SMOOTH",
"564.002 193.001 OFFCURVE",
"456 193.001 OFFCURVE",
"391 249.001 CURVE SMOOTH",
"353 284 LINE",
"103 65 LINE",
"110 63 OFFCURVE",
"119 60 OFFCURVE",
"129 60 CURVE SMOOTH",
"891.003 60 LINE SMOOTH",
"901.003 60 OFFCURVE",
"910.003 63 OFFCURVE",
"918.003 65 CURVE"
);
}
);
width = 960;
}
);
unicode = F12B;
},
{
glyphname = uniF12C;
layers = (
{
layerId = "8F1B665C-F854-4941-BE6D-BEE4265743FC";
name = Regular;
paths = (
{
closed = 1;
nodes = (
"13 487.002 OFFCURVE",
"0 425 OFFCURVE",
"0 360 CURVE SMOOTH",
"0 231.001 OFFCURVE",
"55 106 OFFCURVE",
"141 21 CURVE SMOOTH",
"226.001 -65 OFFCURVE",
"351 -120 OFFCURVE",
"480.002 -120 CURVE SMOOTH",
"609.002 -120 OFFCURVE",
"735.002 -65 OFFCURVE",
"821.003 21 CURVE SMOOTH",
"905.003 106 OFFCURVE",
"960.003 231.001 OFFCURVE",
"960.003 360 CURVE SMOOTH",
"960.003 490.002 OFFCURVE",
"905.003 615.002 OFFCURVE",
"821.003 701.002 CURVE SMOOTH",
"735.002 785.003 OFFCURVE",
"610.002 840.003 OFFCURVE",
"480.002 840.003 CURVE SMOOTH",
"351 840.003 OFFCURVE",
"226.001 785.003 OFFCURVE",
"141 701.002 CURVE SMOOTH",
"97 657.002 OFFCURVE",
"63 607.002 OFFCURVE",
"38 546.002 CURVE SMOOTH"
);
},
{
closed = 1;
nodes = (
"136 234.001 OFFCURVE",
"120 295 OFFCURVE",
"120 360 CURVE SMOOTH",
"120 490.002 OFFCURVE",
"190.001 608.002 OFFCURVE",
"301 672.002 CURVE SMOOTH",
"354 704.002 OFFCURVE",
"415 720.002 OFFCURVE",
"480.002 720.002 CURVE SMOOTH",
"610.002 720.002 OFFCURVE",
"728.002 650.002 OFFCURVE",
"792.003 542.002 CURVE SMOOTH",
"824.003 486.002 OFFCURVE",
"840.003 425 OFFCURVE",
"840.003 360 CURVE SMOOTH",
"840.003 230.001 OFFCURVE",
"770.003 112 OFFCURVE",
"662.002 48 CURVE SMOOTH",
"606.002 16 OFFCURVE",
"545.002 0 OFFCURVE",
"480.002 0 CURVE SMOOTH",
"350 0 OFFCURVE",
"232.001 70 OFFCURVE",
"168.001 181.001 CURVE SMOOTH"
);
},
{
closed = 1;
nodes = (
"661.002 301 LINE SMOOTH",
"694.002 301 OFFCURVE",
"720.002 327 OFFCURVE",
"720.002 360 CURVE SMOOTH",
"720.002 393 OFFCURVE",
"694.002 421 OFFCURVE",
"661.002 421 CURVE SMOOTH",
"301 421 LINE SMOOTH",
"285 421 OFFCURVE",
"270 415 OFFCURVE",
"257 402 CURVE",
"247.001 391 OFFCURVE",
"240.001 376 OFFCURVE",
"240.001 360 CURVE SMOOTH",
"240.001 327 OFFCURVE",
"266 301 OFFCURVE",
"301 301 CURVE SMOOTH"
);
}
);
width = 960;
}
);
unicode = F12C;
},
{
glyphname = uniF12D;
layers = (
{
layerId = "8F1B665C-F854-4941-BE6D-BEE4265743FC";
name = Regular;
paths = (
{
closed = 1;
nodes = (
"12 487.002 OFFCURVE",
"0 425 OFFCURVE",
"0 360 CURVE SMOOTH",
"0 231.001 OFFCURVE",
"55 107 OFFCURVE",
"140 20 CURVE SMOOTH",
"227.001 -65 OFFCURVE",
"351 -120 OFFCURVE",
"480.002 -120 CURVE SMOOTH",
"609.002 -120 OFFCURVE",
"735.002 -65 OFFCURVE",
"820.003 20 CURVE SMOOTH",
"905.003 107 OFFCURVE",
"960.003 231.001 OFFCURVE",
"960.003 360 CURVE SMOOTH",
"960.003 491.002 OFFCURVE",
"905.003 615.002 OFFCURVE",
"820.003 700.002 CURVE SMOOTH",
"735.002 785.003 OFFCURVE",
"611.002 840.003 OFFCURVE",
"480.002 840.003 CURVE SMOOTH",
"351 840.003 OFFCURVE",
"227.001 785.003 OFFCURVE",
"140 700.002 CURVE SMOOTH",
"97 657.002 OFFCURVE",
"63 607.002 OFFCURVE",
"37 547.002 CURVE SMOOTH"
);
},
{
closed = 1;
nodes = (
"136 235.001 OFFCURVE",
"120 295 OFFCURVE",
"120 360 CURVE SMOOTH",
"120 491.002 OFFCURVE",
"189.001 608.002 OFFCURVE",
"300 672.002 CURVE SMOOTH",
"355 704.002 OFFCURVE",
"415 720.002 OFFCURVE",
"480.002 720.002 CURVE SMOOTH",
"611.002 720.002 OFFCURVE",
"728.002 651.002 OFFCURVE",
"792.003 541.002 CURVE SMOOTH",
"824.003 485.002 OFFCURVE",
"840.003 425 OFFCURVE",
"840.003 360 CURVE SMOOTH",
"840.003 229.001 OFFCURVE",
"771.003 112 OFFCURVE",
"661.002 48 CURVE SMOOTH",
"605.002 16 OFFCURVE",
"545.002 0 OFFCURVE",
"480.002 0 CURVE SMOOTH",
"349 0 OFFCURVE",
"232.001 69 OFFCURVE",
"168.001 180.001 CURVE SMOOTH"
);
},
{
closed = 1;
nodes = (
"257 320 LINE",
"245.001 331 OFFCURVE",
"240.001 345 OFFCURVE",
"240.001 360 CURVE SMOOTH",
"240.001 392 OFFCURVE",
"265 417 OFFCURVE",
"297 417 CURVE SMOOTH",
"313 417 OFFCURVE",
"327 412 OFFCURVE",
"339 401 CURVE",
"419 320 LINE",
"621.002 523.002 LINE",
"633.002 533.002 OFFCURVE",
"647.002 539.002 OFFCURVE",
"663.002 539.002 CURVE SMOOTH",
"695.002 539.002 OFFCURVE",
"720.002 513.002 OFFCURVE",
"720.002 481.002 CURVE SMOOTH",
"720.002 465 OFFCURVE",
"715.002 452 OFFCURVE",
"703.002 441 CURVE",
"460 197.001 LINE",
"448 187.001 OFFCURVE",
"435 181.001 OFFCURVE",
"420 181.001 CURVE SMOOTH",
"404 181.001 OFFCURVE",
"391 187.001 OFFCURVE",
"379 197.001 CURVE"
);
}
);
width = 960;
}
);
unicode = F12D;
},
{
glyphname = uniF12E;
layers = (
{
layerId = "8F1B665C-F854-4941-BE6D-BEE4265743FC";
name = Regular;
paths = (
{
closed = 1;
nodes = (
"735.002 785.003 OFFCURVE",
"611.002 840.003 OFFCURVE",
"480.002 840.003 CURVE SMOOTH",
"351 840.003 OFFCURVE",
"227.001 785.003 OFFCURVE",
"140 700.002 CURVE SMOOTH",
"97 657.002 OFFCURVE",
"63 607.002 OFFCURVE",
"37 547.002 CURVE SMOOTH",
"12 487.002 OFFCURVE",
"0 425 OFFCURVE",
"0 360 CURVE SMOOTH",
"0 231.001 OFFCURVE",
"55 107 OFFCURVE",
"140 20 CURVE SMOOTH",
"227.001 -65 OFFCURVE",
"351 -120 OFFCURVE",
"480.002 -120 CURVE SMOOTH",
"609.002 -120 OFFCURVE",
"735.002 -65 OFFCURVE",
"820.003 20 CURVE SMOOTH",
"905.003 107 OFFCURVE",
"960.003 231.001 OFFCURVE",
"960.003 360 CURVE SMOOTH",
"960.003 491.002 OFFCURVE",
"905.003 615.002 OFFCURVE",
"820.003 700.002 CURVE SMOOTH"
);
},
{
closed = 1;
nodes = (
"187.001 151 LINE",
"180.001 160.001 OFFCURVE",
"174.001 170.001 OFFCURVE",
"168.001 180.001 CURVE SMOOTH",
"136 235.001 OFFCURVE",
"120 295 OFFCURVE",
"120 360 CURVE SMOOTH",
"120 491.002 OFFCURVE",
"189.001 608.002 OFFCURVE",
"300 672.002 CURVE SMOOTH",
"355 704.002 OFFCURVE",
"415 720.002 OFFCURVE",
"480.002 720.002 CURVE SMOOTH",
"557.002 720.002 OFFCURVE",
"630.002 696.002 OFFCURVE",
"690.002 654.002 CURVE"
);
},
{
closed = 1;
nodes = (
"774.003 570.002 LINE",
"780.003 560.002 OFFCURVE",
"786.003 551.002 OFFCURVE",
"792.003 541.002 CURVE SMOOTH",
"824.003 485.002 OFFCURVE",
"840.003 425 OFFCURVE",
"840.003 360 CURVE SMOOTH",
"840.003 229.001 OFFCURVE",
"771.003 112 OFFCURVE",
"661.002 48 CURVE SMOOTH",
"605.002 16 OFFCURVE",
"545.002 0 OFFCURVE",
"480.002 0 CURVE SMOOTH",
"403 0 OFFCURVE",
"330 24 OFFCURVE",
"271 67 CURVE"
);
}
);
width = 960;
}
);
unicode = F12E;
},
{
glyphname = uniF12F;
layers = (
{
layerId = "8F1B665C-F854-4941-BE6D-BEE4265743FC";
name = Regular;
paths = (
{
closed = 1;
nodes = (
"740.002 550.002 LINE SMOOTH",
"717.002 574.002 OFFCURVE",
"679.002 574.002 OFFCURVE",
"655.002 550.002 CURVE SMOOTH",
"632.002 527.002 OFFCURVE",
"632.002 489.002 OFFCURVE",
"655.002 465 CURVE SMOOTH",
"700.002 420 LINE",
"540.002 420 LINE",
"540.002 540.002 LINE SMOOTH",
"540.002 573.002 OFFCURVE",
"513.002 600.002 OFFCURVE",
"480.002 600.002 CURVE SMOOTH",
"118 600.002 LINE SMOOTH",
"85 600.002 OFFCURVE",
"61 573.002 OFFCURVE",
"61 540.002 CURVE SMOOTH",
"61 180.001 LINE SMOOTH",
"61 147 OFFCURVE",
"85 120 OFFCURVE",
"118 120 CURVE SMOOTH",
"480.002 120 LINE SMOOTH",
"513.002 120 OFFCURVE",
"540.002 147 OFFCURVE",
"540.002 180.001 CURVE SMOOTH",
"540.002 300 LINE",
"694.002 300 LINE",
"655.002 261 LINE SMOOTH",
"632.002 237.001 OFFCURVE",
"632.002 199.001 OFFCURVE",
"655.002 176.001 CURVE SMOOTH",
"679.002 152 OFFCURVE",
"717.002 152 OFFCURVE",
"740.002 176.001 CURVE SMOOTH",
"881.003 317 LINE SMOOTH",
"894.003 330 OFFCURVE",
"901.003 347 OFFCURVE",
"900.003 363 CURVE",
"901.003 379 OFFCURVE",
"894.003 396 OFFCURVE",
"881.003 409 CURVE SMOOTH"
);
},
{
closed = 1;
nodes = (
"480.002 540.002 LINE",
"480.002 180.001 LINE",
"118 180.001 LINE",
"118 540.002 LINE"
);
}
);
width = 960;
}
);
unicode = F12F;
},
{
glyphname = uniF130;
layers = (
{
layerId = "8F1B665C-F854-4941-BE6D-BEE4265743FC";
name = Regular;
paths = (
{
closed = 1;
nodes = (
"540.002 540.002 LINE SMOOTH",
"540.002 585.002 OFFCURVE",
"513.002 600.002 OFFCURVE",
"480.002 600.002 CURVE SMOOTH",
"119 600.002 LINE SMOOTH",
"85 600.002 OFFCURVE",
"60 573.002 OFFCURVE",
"60 540.002 CURVE SMOOTH",
"60 180.001 LINE SMOOTH",
"60 147 OFFCURVE",
"85 120 OFFCURVE",
"119 120 CURVE SMOOTH",
"480.002 120 LINE SMOOTH",
"513.002 120 OFFCURVE",
"540.002 159.001 OFFCURVE",
"540.002 180.001 CURVE SMOOTH"
);
},
{
closed = 1;
nodes = (
"678.002 550.002 LINE SMOOTH",
"700.002 575.002 OFFCURVE",
"739.002 574.002 OFFCURVE",
"762.002 550.002 CURVE",
"786.003 527.002 OFFCURVE",
"786.003 489.002 OFFCURVE",
"762.002 465 CURVE SMOOTH",
"717.002 420 LINE",
"840.003 420 LINE SMOOTH",
"874.003 420 OFFCURVE",
"900.003 393 OFFCURVE",
"900.003 360 CURVE SMOOTH",
"900.003 327 OFFCURVE",
"874.003 300 OFFCURVE",
"840.003 300 CURVE SMOOTH",
"723.002 300 LINE",
"762.002 261 LINE SMOOTH",
"786.003 237.001 OFFCURVE",
"786.003 199.001 OFFCURVE",
"762.002 176.001 CURVE",
"739.002 152 OFFCURVE",
"700.002 151 OFFCURVE",
"678.002 176.001 CURVE SMOOTH",
"557.002 317 LINE SMOOTH",
"546.002 330 OFFCURVE",
"539.002 347 OFFCURVE",
"540.002 363 CURVE",
"539.002 379 OFFCURVE",
"546.002 396 OFFCURVE",
"557.002 409 CURVE SMOOTH"
);
},
{
closed = 1;
nodes = (
"480.002 540.002 LINE",
"480.002 180.001 LINE",
"119 180.001 LINE",
"119 540.002 LINE"
);
}
);
width = 960;
}
);
unicode = F130;
},
{
glyphname = uniF131;
layers = (
{
layerId = "8F1B665C-F854-4941-BE6D-BEE4265743FC";
name = Regular;
paths = (
{
closed = 1;
nodes = (
"861.003 399 LINE",
"861.003 400 LINE SMOOTH",
"861.003 643.002 OFFCURVE",
"668.002 840.003 OFFCURVE",
"429 840.003 CURVE SMOOTH",
"192.001 840.003 OFFCURVE",
"0 643.002 OFFCURVE",
"0 400 CURVE SMOOTH",
"0 157.001 OFFCURVE",
"192.001 -40 OFFCURVE",
"429 -40 CURVE SMOOTH",
"523.002 -40 OFFCURVE",
"609.002 -11 OFFCURVE",
"677.002 40 CURVE",
"587.002 135 LINE",
"541.002 107 OFFCURVE",
"487.002 91 OFFCURVE",
"429 91 CURVE SMOOTH",
"264 91 OFFCURVE",
"127 229.001 OFFCURVE",
"127 400 CURVE SMOOTH",
"127 571.002 OFFCURVE",
"264 709.002 OFFCURVE",
"429 709.002 CURVE SMOOTH",
"597.002 709.002 OFFCURVE",
"733.002 571.002 OFFCURVE",
"733.002 400 CURVE SMOOTH",
"733.002 399 LINE",
"697.002 399 LINE SMOOTH",
"672.002 399 OFFCURVE",
"651.002 383 OFFCURVE",
"643.002 361 CURVE SMOOTH",
"636.002 341 OFFCURVE",
"639.002 315 OFFCURVE",
"655.002 296 CURVE",
"756.002 191.001 LINE SMOOTH",
"768.002 179.001 OFFCURVE",
"781.003 172.001 OFFCURVE",
"797.003 172.001 CURVE SMOOTH",
"813.003 172.001 OFFCURVE",
"827.003 179.001 OFFCURVE",
"839.003 191.001 CURVE SMOOTH",
"939.003 296 LINE SMOOTH",
"957.003 315 OFFCURVE",
"960.003 341 OFFCURVE",
"952.003 361 CURVE SMOOTH",
"944.003 383 OFFCURVE",
"923.003 399 OFFCURVE",
"897.003 399 CURVE SMOOTH"
);
}
);
width = 960;
}
);
unicode = F131;
},
{
glyphname = uniF132;
layers = (
{
layerId = "8F1B665C-F854-4941-BE6D-BEE4265743FC";
name = Regular;
paths = (
{
closed = 1;
nodes = (
"120 240.001 LINE",
"0 -72 LINE",
"0 -104 OFFCURVE",
"16 -120 OFFCURVE",
"48 -120 CURVE",
"361 0 LINE",
"928.003 568.002 LINE SMOOTH",
"960.003 600.002 OFFCURVE",
"928.003 680.002 OFFCURVE",
"864.003 744.002 CURVE SMOOTH",
"800.003 808.003 OFFCURVE",
"720.002 840.003 OFFCURVE",
"688.002 808.003 CURVE SMOOTH"
);
},
{
closed = 1;
nodes = (
"780.003 540.002 LINE",
"360 120 LINE",
"240.001 240.001 LINE",
"656.002 664.002 LINE"
);
},
{
closed = 1;
nodes = (
"300 60 LINE",
"118 0 LINE",
"180.001 180.001 LINE"
);
}
);
width = 960;
}
);
unicode = F132;
},
{
glyphname = uniF133;
layers = (
{
layerId = "8F1B665C-F854-4941-BE6D-BEE4265743FC";
name = Regular;
paths = (
{
closed = 1;
nodes = (
"60 720.002 LINE SMOOTH",
"27 720.002 OFFCURVE",
"0 693.002 OFFCURVE",
"0 660.002 CURVE SMOOTH",
"0 180.001 LINE SMOOTH",
"0 147 OFFCURVE",
"27 120 OFFCURVE",
"60 120 CURVE SMOOTH",
"600.002 120 LINE SMOOTH",
"633.002 120 OFFCURVE",
"660.002 147 OFFCURVE",
"660.002 180.001 CURVE SMOOTH",
"660.002 660.002 LINE SMOOTH",
"660.002 693.002 OFFCURVE",
"633.002 720.002 OFFCURVE",
"600.002 720.002 CURVE SMOOTH"
);
},
{
closed = 1;
nodes = (
"720.002 260 LINE SMOOTH",
"720.002 245.001 OFFCURVE",
"725.002 233.001 OFFCURVE",
"739.002 225.001 CURVE",
"745.002 221.001 OFFCURVE",
"752.002 220.001 OFFCURVE",
"759.002 220.001 CURVE SMOOTH",
"765.002 220.001 OFFCURVE",
"772.003 221.001 OFFCURVE",
"777.003 224.001 CURVE",
"937.003 384 LINE",
"951.003 391 OFFCURVE",
"960.003 405 OFFCURVE",
"960.003 420 CURVE SMOOTH",
"960.003 435 OFFCURVE",
"951.003 449 OFFCURVE",
"937.003 456 CURVE",
"777.003 616.002 LINE",
"772.003 619.002 OFFCURVE",
"765.002 620.002 OFFCURVE",
"759.002 620.002 CURVE SMOOTH",
"752.002 620.002 OFFCURVE",
"745.002 619.002 OFFCURVE",
"739.002 615.002 CURVE",
"725.002 607.002 OFFCURVE",
"720.002 595.002 OFFCURVE",
"720.002 580.002 CURVE SMOOTH"
);
},
{
closed = 1;
nodes = (
"540.002 600.002 LINE",
"540.002 240.001 LINE",
"120 240.001 LINE",
"120 600.002 LINE"
);
}
);
width = 960;
}
);
unicode = F133;
},
{
glyphname = uniF134;
layers = (
{
layerId = "8F1B665C-F854-4941-BE6D-BEE4265743FC";
name = Regular;
paths = (
{
closed = 1;
nodes = (
"360 720.002 LINE SMOOTH",
"327 720.002 OFFCURVE",
"300 693.002 OFFCURVE",
"300 660.002 CURVE SMOOTH",
"300 180.001 LINE SMOOTH",
"300 147 OFFCURVE",
"327 120 OFFCURVE",
"360 120 CURVE SMOOTH",
"900.003 120 LINE SMOOTH",
"933.003 120 OFFCURVE",
"960.003 147 OFFCURVE",
"960.003 180.001 CURVE SMOOTH",
"960.003 660.002 LINE SMOOTH",
"960.003 693.002 OFFCURVE",
"933.003 720.002 OFFCURVE",
"900.003 720.002 CURVE SMOOTH"
);
},
{
closed = 1;
nodes = (
"21 456 LINE",
"9 449 OFFCURVE",
"0 435 OFFCURVE",
"0 420 CURVE SMOOTH",
"0 405 OFFCURVE",
"9 391 OFFCURVE",
"21 384 CURVE",
"183.001 224.001 LINE",
"188.001 221.001 OFFCURVE",
"193.001 220.001 OFFCURVE",
"200.001 220.001 CURVE SMOOTH",
"208.001 220.001 OFFCURVE",
"215.001 221.001 OFFCURVE",
"221.001 225.001 CURVE SMOOTH",
"233.001 233.001 OFFCURVE",
"240.001 245.001 OFFCURVE",
"240.001 260 CURVE SMOOTH",
"240.001 580.002 LINE SMOOTH",
"240.001 595.002 OFFCURVE",
"233.001 607.002 OFFCURVE",
"221.001 615.002 CURVE SMOOTH",
"215.001 619.002 OFFCURVE",
"207.001 620.002 OFFCURVE",
"200.001 620.002 CURVE SMOOTH",
"193.001 620.002 OFFCURVE",
"188.001 619.002 OFFCURVE",
"183.001 616.002 CURVE"
);
},
{
closed = 1;
nodes = (
"840.003 600.002 LINE",
"840.003 240.001 LINE",
"420 240.001 LINE",
"420 600.002 LINE"
);
}
);
width = 960;
}
);
unicode = F134;
},
{
glyphname = uniF135;
layers = (
{
layerId = "8F1B665C-F854-4941-BE6D-BEE4265743FC";
name = Regular;
paths = (
{
closed = 1;
nodes = (
"240.001 840.003 LINE SMOOTH",
"207.001 840.003 OFFCURVE",
"180.001 813.003 OFFCURVE",
"180.001 780.003 CURVE SMOOTH",
"180.001 300 LINE SMOOTH",
"180.001 267 OFFCURVE",
"207.001 240.001 OFFCURVE",
"240.001 240.001 CURVE SMOOTH",
"780.003 240.001 LINE SMOOTH",
"813.003 240.001 OFFCURVE",
"840.003 267 OFFCURVE",
"840.003 300 CURVE SMOOTH",
"840.003 780.003 LINE SMOOTH",
"840.003 813.003 OFFCURVE",
"813.003 840.003 OFFCURVE",
"780.003 840.003 CURVE SMOOTH"
);
},
{
closed = 1;
nodes = (
"720.002 720.002 LINE",
"720.002 360 LINE",
"300 360 LINE",
"300 720.002 LINE"
);
},
{
closed = 1;
nodes = (
"474.002 -39 LINE",
"481.002 -51 OFFCURVE",
"495.002 -60 OFFCURVE",
"510.002 -60 CURVE SMOOTH",
"525.002 -60 OFFCURVE",
"539.002 -51 OFFCURVE",
"546.002 -39 CURVE",
"706.002 123 LINE",
"709.002 128 OFFCURVE",
"710.002 133 OFFCURVE",
"710.002 140 CURVE SMOOTH",
"710.002 148 OFFCURVE",
"709.002 155.001 OFFCURVE",
"705.002 161.001 CURVE SMOOTH",
"697.002 173.001 OFFCURVE",
"685.002 180.001 OFFCURVE",
"670.002 180.001 CURVE SMOOTH",
"350 180.001 LINE SMOOTH",
"335 180.001 OFFCURVE",
"323 173.001 OFFCURVE",
"315 161.001 CURVE SMOOTH",
"311 155.001 OFFCURVE",
"310 147 OFFCURVE",
"310 140 CURVE SMOOTH",
"310 133 OFFCURVE",
"311 128 OFFCURVE",
"314 123 CURVE"
);
}
);
width = 960;
}
);
unicode = F135;
},
{
glyphname = uniF136;
layers = (
{
layerId = "8F1B665C-F854-4941-BE6D-BEE4265743FC";
name = Regular;
paths = (
{
closed = 1;
nodes = (
"546.002 819.003 LINE",
"539.002 831.003 OFFCURVE",
"525.002 840.003 OFFCURVE",
"510.002 840.003 CURVE SMOOTH",
"495.002 840.003 OFFCURVE",
"481.002 831.003 OFFCURVE",
"474.002 819.003 CURVE",
"314 657.002 LINE",
"311 652.002 OFFCURVE",
"310 647.002 OFFCURVE",
"310 640.002 CURVE SMOOTH",
"310 632.002 OFFCURVE",
"311 625.002 OFFCURVE",
"315 619.002 CURVE SMOOTH",
"323 607.002 OFFCURVE",
"335 600.002 OFFCURVE",
"350 600.002 CURVE SMOOTH",
"670.002 600.002 LINE SMOOTH",
"685.002 600.002 OFFCURVE",
"697.002 607.002 OFFCURVE",
"705.002 619.002 CURVE SMOOTH",
"709.002 625.002 OFFCURVE",
"710.002 633.002 OFFCURVE",
"710.002 640.002 CURVE SMOOTH",
"710.002 647.002 OFFCURVE",
"709.002 652.002 OFFCURVE",
"706.002 657.002 CURVE"
);
},
{
closed = 1;
nodes = (
"240.001 540.002 LINE SMOOTH",
"207.001 540.002 OFFCURVE",
"180.001 513.002 OFFCURVE",
"180.001 480.002 CURVE SMOOTH",
"180.001 0 LINE SMOOTH",
"180.001 -33 OFFCURVE",
"207.001 -60 OFFCURVE",
"240.001 -60 CURVE SMOOTH",
"780.003 -60 LINE SMOOTH",
"813.003 -60 OFFCURVE",
"840.003 -33 OFFCURVE",
"840.003 0 CURVE SMOOTH",
"840.003 480.002 LINE SMOOTH",
"840.003 513.002 OFFCURVE",
"813.003 540.002 OFFCURVE",
"780.003 540.002 CURVE SMOOTH"
);
},
{
closed = 1;
nodes = (
"720.002 420 LINE",
"720.002 60 LINE",
"300 60 LINE",
"300 420 LINE"
);
}
);
width = 960;
}
);
unicode = F136;
},
{
glyphname = uniF137;
layers = (
{
layerId = "8F1B665C-F854-4941-BE6D-BEE4265743FC";
name = Regular;
paths = (
{
closed = 1;
nodes = (
"420 660.002 LINE SMOOTH",
"420 627.002 OFFCURVE",
"447 600.002 OFFCURVE",
"480.002 600.002 CURVE SMOOTH",
"513.002 600.002 OFFCURVE",
"540.002 627.002 OFFCURVE",
"540.002 660.002 CURVE SMOOTH",
"540.002 780.003 LINE SMOOTH",
"540.002 813.003 OFFCURVE",
"513.002 840.003 OFFCURVE",
"480.002 840.003 CURVE SMOOTH",
"447 840.003 OFFCURVE",
"420 813.003 OFFCURVE",
"420 780.003 CURVE SMOOTH"
);
},
{
closed = 1;
nodes = (
"225.001 530.002 LINE SMOOTH",
"237.001 518.002 OFFCURVE",
"251.001 512.002 OFFCURVE",
"268 512.002 CURVE SMOOTH",
"301 512.002 OFFCURVE",
"328 539.002 OFFCURVE",
"328 572.002 CURVE SMOOTH",
"328 589.002 OFFCURVE",
"322 603.002 OFFCURVE",
"310 615.002 CURVE SMOOTH",
"225.001 699.002 LINE",
"214.001 711.002 OFFCURVE",
"200.001 717.002 OFFCURVE",
"183.001 717.002 CURVE SMOOTH",
"167.001 717.002 OFFCURVE",
"152 711.002 OFFCURVE",
"141 699.002 CURVE",
"129 688.002 OFFCURVE",
"123 673.002 OFFCURVE",
"123 657.002 CURVE SMOOTH",
"123 640.002 OFFCURVE",
"129 626.002 OFFCURVE",
"141 615.002 CURVE"
);
},
{
closed = 1;
nodes = (
"650.002 615.002 LINE SMOOTH",
"638.002 603.002 OFFCURVE",
"632.002 589.002 OFFCURVE",
"632.002 572.002 CURVE SMOOTH",
"632.002 539.002 OFFCURVE",
"659.002 512.002 OFFCURVE",
"692.002 512.002 CURVE SMOOTH",
"709.002 512.002 OFFCURVE",
"723.002 518.002 OFFCURVE",
"735.002 530.002 CURVE SMOOTH",
"819.003 615.002 LINE",
"831.003 626.002 OFFCURVE",
"837.003 640.002 OFFCURVE",
"837.003 657.002 CURVE SMOOTH",
"837.003 690.002 OFFCURVE",
"810.003 717.002 OFFCURVE",
"777.003 717.002 CURVE SMOOTH",
"760.002 717.002 OFFCURVE",
"746.002 711.002 OFFCURVE",
"735.002 699.002 CURVE"
);
},
{
closed = 1;
nodes = (
"180.001 300 LINE SMOOTH",
"213.001 300 OFFCURVE",
"240.001 327 OFFCURVE",
"240.001 360 CURVE SMOOTH",
"240.001 393 OFFCURVE",
"213.001 420 OFFCURVE",
"180.001 420 CURVE SMOOTH",
"60 420 LINE SMOOTH",
"44 420 OFFCURVE",
"30 414 OFFCURVE",
"18 403 CURVE",
"6 391 OFFCURVE",
"0 376 OFFCURVE",
"0 360 CURVE SMOOTH",
"0 327 OFFCURVE",
"27 300 OFFCURVE",
"60 300 CURVE SMOOTH"
);
},
{
closed = 1;
nodes = (
"900.003 300 LINE SMOOTH",
"933.003 300 OFFCURVE",
"960.003 327 OFFCURVE",
"960.003 360 CURVE SMOOTH",
"960.003 393 OFFCURVE",
"933.003 420 OFFCURVE",
"900.003 420 CURVE SMOOTH",
"780.003 420 LINE SMOOTH",
"764.002 420 OFFCURVE",
"750.002 414 OFFCURVE",
"738.002 403 CURVE",
"726.002 391 OFFCURVE",
"720.002 376 OFFCURVE",
"720.002 360 CURVE SMOOTH",
"720.002 327 OFFCURVE",
"747.002 300 OFFCURVE",
"780.003 300 CURVE SMOOTH"
);
},
{
closed = 1;
nodes = (
"141 105 LINE",
"129 94 OFFCURVE",
"123 80 OFFCURVE",
"123 63 CURVE SMOOTH",
"123 30 OFFCURVE",
"150 3 OFFCURVE",
"183.001 3 CURVE SMOOTH",
"200.001 3 OFFCURVE",
"214.001 9 OFFCURVE",
"225.001 21 CURVE",
"310 105 LINE SMOOTH",
"322 117 OFFCURVE",
"328 131 OFFCURVE",
"328 148 CURVE SMOOTH",
"328 181.001 OFFCURVE",
"301 208.001 OFFCURVE",
"268 208.001 CURVE SMOOTH",
"251.001 208.001 OFFCURVE",
"237.001 202.001 OFFCURVE",
"225.001 190.001 CURVE SMOOTH"
);
},
{
closed = 1;
nodes = (
"735.002 21 LINE",
"746.002 9 OFFCURVE",
"760.002 3 OFFCURVE",
"777.003 3 CURVE SMOOTH",
"810.003 3 OFFCURVE",
"837.003 30 OFFCURVE",
"837.003 63 CURVE SMOOTH",
"837.003 80 OFFCURVE",
"831.003 94 OFFCURVE",
"819.003 105 CURVE",
"735.002 190.001 LINE SMOOTH",
"723.002 202.001 OFFCURVE",
"709.002 208.001 OFFCURVE",
"692.002 208.001 CURVE SMOOTH",
"676.002 208.001 OFFCURVE",
"661.002 202.001 OFFCURVE",
"650.002 190.001 CURVE",
"638.002 179.001 OFFCURVE",
"632.002 164.001 OFFCURVE",
"632.002 148 CURVE SMOOTH",
"632.002 131 OFFCURVE",
"638.002 117 OFFCURVE",
"650.002 105 CURVE SMOOTH"
);
},
{
closed = 1;
nodes = (
"420 -60 LINE SMOOTH",
"420 -93 OFFCURVE",
"447 -120 OFFCURVE",
"480.002 -120 CURVE SMOOTH",
"513.002 -120 OFFCURVE",
"540.002 -93 OFFCURVE",
"540.002 -60 CURVE SMOOTH",
"540.002 60 LINE SMOOTH",
"540.002 93 OFFCURVE",
"513.002 120 OFFCURVE",
"480.002 120 CURVE SMOOTH",
"447 120 OFFCURVE",
"420 93 OFFCURVE",
"420 60 CURVE SMOOTH"
);
}
);
width = 960;
}
);
unicode = F137;
},
{
glyphname = uniF138;
layers = (
{
layerId = "8F1B665C-F854-4941-BE6D-BEE4265743FC";
name = Regular;
paths = (
{
closed = 1;
nodes = (
"13 487.002 OFFCURVE",
"0 425 OFFCURVE",
"0 360 CURVE SMOOTH",
"0 230.001 OFFCURVE",
"54 106 OFFCURVE",
"141 21 CURVE SMOOTH",
"226.001 -66 OFFCURVE",
"350 -120 OFFCURVE",
"480.002 -120 CURVE SMOOTH",
"610.002 -120 OFFCURVE",
"734.002 -66 OFFCURVE",
"820.003 21 CURVE SMOOTH",
"906.003 106 OFFCURVE",
"960.003 230.001 OFFCURVE",
"960.003 360 CURVE SMOOTH",
"960.003 491.002 OFFCURVE",
"906.003 614.002 OFFCURVE",
"820.003 700.002 CURVE SMOOTH",
"734.002 786.003 OFFCURVE",
"611.002 840.003 OFFCURVE",
"480.002 840.003 CURVE SMOOTH",
"350 840.003 OFFCURVE",
"226.001 786.003 OFFCURVE",
"141 700.002 CURVE SMOOTH",
"98 657.002 OFFCURVE",
"63 606.002 OFFCURVE",
"38 547.002 CURVE SMOOTH"
);
},
{
closed = 1;
nodes = (
"136 234.001 OFFCURVE",
"120 295 OFFCURVE",
"120 360 CURVE SMOOTH",
"120 491.002 OFFCURVE",
"189.001 608.002 OFFCURVE",
"300 672.002 CURVE SMOOTH",
"354 704.002 OFFCURVE",
"415 720.002 OFFCURVE",
"480.002 720.002 CURVE SMOOTH",
"611.002 720.002 OFFCURVE",
"728.002 651.002 OFFCURVE",
"792.003 541.002 CURVE SMOOTH",
"824.003 486.002 OFFCURVE",
"840.003 425 OFFCURVE",
"840.003 360 CURVE SMOOTH",
"840.003 229.001 OFFCURVE",
"771.003 113 OFFCURVE",
"661.002 48 CURVE SMOOTH",
"606.002 16 OFFCURVE",
"545.002 0 OFFCURVE",
"480.002 0 CURVE SMOOTH",
"349 0 OFFCURVE",
"233.001 69 OFFCURVE",
"168.001 180.001 CURVE SMOOTH"
);
},
{
closed = 1;
nodes = (
"420 300 LINE",
"420 267 OFFCURVE",
"447 240.001 OFFCURVE",
"480.002 240.001 CURVE SMOOTH",
"513.002 240.001 OFFCURVE",
"540.002 267 OFFCURVE",
"540.002 300 CURVE",
"600.002 540.002 LINE",
"600.002 606.002 OFFCURVE",
"546.002 660.002 OFFCURVE",
"480.002 660.002 CURVE SMOOTH",
"414 660.002 OFFCURVE",
"360 606.002 OFFCURVE",
"360 540.002 CURVE SMOOTH",
"360 501.002 OFFCURVE",
"385 405 OFFCURVE",
"405 345 CURVE SMOOTH"
);
},
{
closed = 1;
nodes = (
"426 151 OFFCURVE",
"420 136 OFFCURVE",
"420 120 CURVE SMOOTH",
"420 87 OFFCURVE",
"447 60 OFFCURVE",
"480.002 60 CURVE SMOOTH",
"513.002 60 OFFCURVE",
"540.002 87 OFFCURVE",
"540.002 120 CURVE SMOOTH",
"540.002 153 OFFCURVE",
"513.002 180.001 OFFCURVE",
"480.002 180.001 CURVE SMOOTH",
"464 180.001 OFFCURVE",
"450 174.001 OFFCURVE",
"438 163.001 CURVE"
);
}
);
width = 960;
}
);
unicode = F138;
},
{
glyphname = uniF139;
layers = (
{
layerId = "8F1B665C-F854-4941-BE6D-BEE4265743FC";
name = Regular;
paths = (
{
closed = 1;
nodes = (
"13 487.002 OFFCURVE",
"0 425 OFFCURVE",
"0 360 CURVE SMOOTH",
"0 230.001 OFFCURVE",
"54 106 OFFCURVE",
"141 21 CURVE SMOOTH",
"226.001 -66 OFFCURVE",
"350 -120 OFFCURVE",
"480.002 -120 CURVE SMOOTH",
"610.002 -120 OFFCURVE",
"734.002 -66 OFFCURVE",
"820.003 21 CURVE SMOOTH",
"906.003 106 OFFCURVE",
"960.003 230.001 OFFCURVE",
"960.003 360 CURVE SMOOTH",
"960.003 491.002 OFFCURVE",
"906.003 614.002 OFFCURVE",
"820.003 700.002 CURVE SMOOTH",
"734.002 786.003 OFFCURVE",
"611.002 840.003 OFFCURVE",
"480.002 840.003 CURVE SMOOTH",
"350 840.003 OFFCURVE",
"226.001 786.003 OFFCURVE",
"141 700.002 CURVE SMOOTH",
"98 657.002 OFFCURVE",
"63 606.002 OFFCURVE",
"38 547.002 CURVE SMOOTH"
);
},
{
closed = 1;
nodes = (
"136 234.001 OFFCURVE",
"120 295 OFFCURVE",
"120 360 CURVE SMOOTH",
"120 491.002 OFFCURVE",
"189.001 608.002 OFFCURVE",
"300 672.002 CURVE SMOOTH",
"354 704.002 OFFCURVE",
"415 720.002 OFFCURVE",
"480.002 720.002 CURVE SMOOTH",
"611.002 720.002 OFFCURVE",
"728.002 651.002 OFFCURVE",
"792.003 541.002 CURVE SMOOTH",
"824.003 486.002 OFFCURVE",
"840.003 425 OFFCURVE",
"840.003 360 CURVE SMOOTH",
"840.003 229.001 OFFCURVE",
"771.003 113 OFFCURVE",
"661.002 48 CURVE SMOOTH",
"606.002 16 OFFCURVE",
"545.002 0 OFFCURVE",
"480.002 0 CURVE SMOOTH",
"349 0 OFFCURVE",
"233.001 69 OFFCURVE",
"168.001 180.001 CURVE SMOOTH"
);
},
{
closed = 1;
nodes = (
"395 360 LINE",
"310 275 LINE",
"299 263 OFFCURVE",
"293 249.001 OFFCURVE",
"293 233.001 CURVE SMOOTH",
"293 200.001 OFFCURVE",
"320 173.001 OFFCURVE",
"353 173.001 CURVE SMOOTH",
"369 173.001 OFFCURVE",
"383 179.001 OFFCURVE",
"395 190.001 CURVE",
"480.002 275 LINE",
"565.002 190.001 LINE",
"577.002 179.001 OFFCURVE",
"591.002 173.001 OFFCURVE",
"607.002 173.001 CURVE SMOOTH",
"640.002 173.001 OFFCURVE",
"668.002 200.001 OFFCURVE",
"668.002 233.001 CURVE SMOOTH",
"668.002 249.001 OFFCURVE",
"661.002 263 OFFCURVE",
"650.002 275 CURVE",
"565.002 360 LINE",
"650.002 445 LINE",
"661.002 457 OFFCURVE",
"668.002 471.002 OFFCURVE",
"668.002 487.002 CURVE SMOOTH",
"668.002 520.002 OFFCURVE",
"640.002 548.002 OFFCURVE",
"607.002 548.002 CURVE SMOOTH",
"591.002 548.002 OFFCURVE",
"577.002 541.002 OFFCURVE",
"565.002 530.002 CURVE",
"480.002 445 LINE",
"395 530.002 LINE",
"383 541.002 OFFCURVE",
"369 548.002 OFFCURVE",
"353 548.002 CURVE SMOOTH",
"320 548.002 OFFCURVE",
"293 520.002 OFFCURVE",
"293 487.002 CURVE SMOOTH",
"293 471.002 OFFCURVE",
"299 457 OFFCURVE",
"310 445 CURVE"
);
}
);
width = 960;
}
);
unicode = F139;
},
{
glyphname = uniF13A;
layers = (
{
layerId = "8F1B665C-F854-4941-BE6D-BEE4265743FC";
name = Regular;
paths = (
{
closed = 1;
nodes = (
"34 280 LINE",
"10 302 OFFCURVE",
"0 330 OFFCURVE",
"0 360 CURVE SMOOTH",
"0 424 OFFCURVE",
"50 475.002 OFFCURVE",
"114 475.002 CURVE SMOOTH",
"146 475.002 OFFCURVE",
"174.001 465 OFFCURVE",
"198.001 442 CURVE SMOOTH",
"358 280 LINE",
"762.002 688.002 LINE",
"786.003 708.002 OFFCURVE",
"814.003 720.002 OFFCURVE",
"846.003 720.002 CURVE SMOOTH",
"910.003 720.002 OFFCURVE",
"960.003 668.002 OFFCURVE",
"960.003 603.002 CURVE SMOOTH",
"960.003 571.002 OFFCURVE",
"950.003 545.002 OFFCURVE",
"926.003 523.002 CURVE",
"440 32 LINE",
"416 12 OFFCURVE",
"390 0 OFFCURVE",
"360 0 CURVE SMOOTH",
"328 0 OFFCURVE",
"302 12 OFFCURVE",
"278 32 CURVE"
);
}
);
width = 960;
}
);
unicode = F13A;
},
{
glyphname = uniF13B;
layers = (
{
layerId = "8F1B665C-F854-4941-BE6D-BEE4265743FC";
name = Regular;
paths = (
{
closed = 1;
nodes = (
"129 265 OFFCURVE",
"120 311 OFFCURVE",
"120 360 CURVE SMOOTH",
"120 457 OFFCURVE",
"161.001 551.002 OFFCURVE",
"225.001 615.002 CURVE SMOOTH",
"290 679.002 OFFCURVE",
"383 720.002 OFFCURVE",
"480.002 720.002 CURVE SMOOTH",
"578.002 720.002 OFFCURVE",
"671.002 679.002 OFFCURVE",
"735.002 615.002 CURVE SMOOTH",
"799.003 551.002 OFFCURVE",
"840.003 458 OFFCURVE",
"840.003 360 CURVE SMOOTH",
"840.003 263 OFFCURVE",
"799.003 170.001 OFFCURVE",
"735.002 105 CURVE SMOOTH",
"671.002 41 OFFCURVE",
"577.002 0 OFFCURVE",
"480.002 0 CURVE SMOOTH",
"383 0 OFFCURVE",
"290 41 OFFCURVE",
"225.001 105 CURVE SMOOTH",
"193.001 137 OFFCURVE",
"167.001 176.001 OFFCURVE",
"148 220.001 CURVE SMOOTH"
);
},
{
closed = 1;
nodes = (
"222.001 454 OFFCURVE",
"210.001 409 OFFCURVE",
"210.001 360 CURVE SMOOTH",
"210.001 262 OFFCURVE",
"262 174.001 OFFCURVE",
"345 126 CURVE SMOOTH",
"386 102 OFFCURVE",
"431 90 OFFCURVE",
"480.002 90 CURVE SMOOTH",
"578.002 90 OFFCURVE",
"666.002 142 OFFCURVE",
"714.002 225.001 CURVE SMOOTH",
"738.002 266 OFFCURVE",
"750.002 311 OFFCURVE",
"750.002 360 CURVE SMOOTH",
"750.002 458 OFFCURVE",
"698.002 546.002 OFFCURVE",
"616.002 594.002 CURVE SMOOTH",
"574.002 618.002 OFFCURVE",
"529.002 630.002 OFFCURVE",
"480.002 630.002 CURVE SMOOTH",
"382 630.002 OFFCURVE",
"294 578.002 OFFCURVE",
"246.001 496.002 CURVE SMOOTH"
);
},
{
closed = 1;
nodes = (
"435 495.002 LINE SMOOTH",
"435 520.002 OFFCURVE",
"455 540.002 OFFCURVE",
"480.002 540.002 CURVE SMOOTH",
"505.002 540.002 OFFCURVE",
"525.002 520.002 OFFCURVE",
"525.002 495.002 CURVE SMOOTH",
"525.002 405 LINE",
"615.002 405 LINE SMOOTH",
"640.002 405 OFFCURVE",
"660.002 385 OFFCURVE",
"660.002 360 CURVE SMOOTH",
"660.002 335 OFFCURVE",
"640.002 315 OFFCURVE",
"615.002 315 CURVE SMOOTH",
"480.002 315 LINE SMOOTH",
"455 315 OFFCURVE",
"435 335 OFFCURVE",
"435 360 CURVE SMOOTH"
);
}
);
width = 960;
}
);
unicode = F13B;
},
{
glyphname = uniF13C;
layers = (
{
layerId = "8F1B665C-F854-4941-BE6D-BEE4265743FC";
name = Regular;
paths = (
{
closed = 1;
nodes = (
"720.002 600.002 LINE",
"240.001 600.002 LINE",
"240.001 480.002 LINE",
"720.002 480.002 LINE"
);
},
{
closed = 1;
nodes = (
"720.002 420 LINE",
"240.001 420 LINE",
"240.001 300 LINE",
"720.002 300 LINE"
);
},
{
closed = 1;
nodes = (
"720.002 240.001 LINE",
"240.001 240.001 LINE",
"240.001 120 LINE",
"720.002 120 LINE"
);
}
);
width = 960;
}
);
unicode = F13C;
},
{
glyphname = uniF13D;
layers = (
{
layerId = "8F1B665C-F854-4941-BE6D-BEE4265743FC";
name = Regular;
paths = (
{
closed = 1;
nodes = (
"600.002 240.001 LINE",
"754.002 240.001 LINE SMOOTH",
"768.002 240.001 OFFCURVE",
"780.003 254.001 OFFCURVE",
"780.003 268 CURVE SMOOTH",
"780.003 452 LINE SMOOTH",
"780.003 466 OFFCURVE",
"768.002 480.002 OFFCURVE",
"754.002 480.002 CURVE SMOOTH",
"600.002 480.002 LINE",
"600.002 634.002 LINE SMOOTH",
"600.002 648.002 OFFCURVE",
"586.002 660.002 OFFCURVE",
"572.002 660.002 CURVE SMOOTH",
"388 660.002 LINE SMOOTH",
"374 660.002 OFFCURVE",
"360 648.002 OFFCURVE",
"360 634.002 CURVE SMOOTH",
"360 480.002 LINE",
"206.001 480.002 LINE SMOOTH",
"192.001 480.002 OFFCURVE",
"180.001 466 OFFCURVE",
"180.001 452 CURVE SMOOTH",
"180.001 268 LINE SMOOTH",
"180.001 254.001 OFFCURVE",
"192.001 240.001 OFFCURVE",
"206.001 240.001 CURVE SMOOTH",
"360 240.001 LINE",
"360 86 LINE SMOOTH",
"360 72 OFFCURVE",
"374 60 OFFCURVE",
"388 60 CURVE SMOOTH",
"572.002 60 LINE SMOOTH",
"586.002 60 OFFCURVE",
"600.002 72 OFFCURVE",
"600.002 86 CURVE SMOOTH"
);
}
);
width = 960;
}
);
unicode = F13D;
},
{
glyphname = uniF13E;
layers = (
{
layerId = "8F1B665C-F854-4941-BE6D-BEE4265743FC";
name = Regular;
paths = (
{
closed = 1;
nodes = (
"612.002 360 LINE",
"760.002 508.002 LINE",
"768.002 517.002 OFFCURVE",
"768.002 532.002 OFFCURVE",
"760.002 540.002 CURVE SMOOTH",
"660.002 640.002 LINE SMOOTH",
"652.002 648.002 OFFCURVE",
"637.002 648.002 OFFCURVE",
"628.002 640.002 CURVE",
"480.002 492.002 LINE",
"332 640.002 LINE",
"323 648.002 OFFCURVE",
"308 648.002 OFFCURVE",
"300 640.002 CURVE SMOOTH",
"200.001 540.002 LINE SMOOTH",
"192.001 532.002 OFFCURVE",
"192.001 517.002 OFFCURVE",
"200.001 508.002 CURVE",
"348 360 LINE",
"200.001 212.001 LINE",
"192.001 203.001 OFFCURVE",
"192.001 188.001 OFFCURVE",
"200.001 180.001 CURVE SMOOTH",
"300 80 LINE SMOOTH",
"308 72 OFFCURVE",
"323 72 OFFCURVE",
"332 80 CURVE",
"480.002 228.001 LINE",
"628.002 80 LINE",
"637.002 72 OFFCURVE",
"652.002 72 OFFCURVE",
"660.002 80 CURVE SMOOTH",
"760.002 180.001 LINE SMOOTH",
"768.002 188.001 OFFCURVE",
"768.002 203.001 OFFCURVE",
"760.002 212.001 CURVE"
);
}
);
width = 960;
}
);
unicode = F13E;
},
{
glyphname = uniF140;
layers = (
{
layerId = "8F1B665C-F854-4941-BE6D-BEE4265743FC";
name = Regular;
paths = (
{
closed = 1;
nodes = (
"60 61 LINE",
"60 780.003 LINE",
"480.002 780.003 LINE",
"480.002 640.002 LINE SMOOTH",
"480.002 617.002 OFFCURVE",
"498.002 600.002 OFFCURVE",
"521.002 600.002 CURVE SMOOTH",
"660.002 600.002 LINE",
"660.002 455 LINE",
"720.002 480.002 LINE",
"720.002 660.002 LINE",
"494.002 841.003 LINE",
"40 841.003 LINE SMOOTH",
"18 841.003 OFFCURVE",
"0 823.003 OFFCURVE",
"0 801.003 CURVE SMOOTH",
"0 41 LINE SMOOTH",
"0 18 OFFCURVE",
"18 0 OFFCURVE",
"40 0 CURVE SMOOTH",
"406 0 LINE",
"393 25 OFFCURVE",
"383 32 OFFCURVE",
"378 61 CURVE"
);
},
{
closed = 1;
nodes = (
"120 600.002 LINE",
"420 600.002 LINE",
"420 660.002 LINE",
"120 660.002 LINE"
);
},
{
closed = 1;
nodes = (
"120 420 LINE",
"540.002 420 LINE",
"540.002 480.002 LINE",
"120 480.002 LINE"
);
},
{
closed = 1;
nodes = (
"542.002 421 OFFCURVE",
"422 300 OFFCURVE",
"422 151 CURVE SMOOTH",
"422 1 OFFCURVE",
"542.002 -119 OFFCURVE",
"691.002 -119 CURVE SMOOTH",
"841.003 -119 OFFCURVE",
"962.003 1 OFFCURVE",
"962.003 151 CURVE SMOOTH",
"962.003 300 OFFCURVE",
"841.003 421 OFFCURVE",
"691.002 421 CURVE SMOOTH"
);
},
{
closed = 1;
nodes = (
"577.002 -57 OFFCURVE",
"483.002 36 OFFCURVE",
"483.002 151 CURVE SMOOTH",
"483.002 265 OFFCURVE",
"577.002 359 OFFCURVE",
"691.002 359 CURVE SMOOTH",
"806.003 359 OFFCURVE",
"899.003 265 OFFCURVE",
"899.003 151 CURVE SMOOTH",
"899.003 36 OFFCURVE",
"806.003 -57 OFFCURVE",
"691.002 -57 CURVE SMOOTH"
);
},
{
closed = 1;
nodes = (
"120 240.001 LINE",
"360 240.001 LINE",
"360 300 LINE",
"120 300 LINE"
);
},
{
closed = 1;
nodes = (
"725.002 300 OFFCURVE",
"751.002 273 OFFCURVE",
"751.002 240.001 CURVE SMOOTH",
"751.002 206.001 OFFCURVE",
"725.002 180.001 OFFCURVE",
"691.002 180.001 CURVE SMOOTH",
"658.002 180.001 OFFCURVE",
"631.002 206.001 OFFCURVE",
"631.002 240.001 CURVE SMOOTH",
"631.002 273 OFFCURVE",
"658.002 300 OFFCURVE",
"691.002 300 CURVE SMOOTH"
);
},
{
closed = 1;
nodes = (
"712.002 151 LINE SMOOTH",
"736.002 151 OFFCURVE",
"753.002 132 OFFCURVE",
"753.002 109 CURVE SMOOTH",
"753.002 26 LINE SMOOTH",
"753.002 2 OFFCURVE",
"736.002 -15 OFFCURVE",
"712.002 -15 CURVE SMOOTH",
"670.002 -15 LINE SMOOTH",
"647.002 -15 OFFCURVE",
"629.002 2 OFFCURVE",
"629.002 26 CURVE SMOOTH",
"629.002 109 LINE SMOOTH",
"629.002 132 OFFCURVE",
"647.002 151 OFFCURVE",
"670.002 151 CURVE SMOOTH"
);
}
);
width = 960;
}
);
unicode = F140;
},
{
glyphname = uniF141;
layers = (
{
layerId = "8F1B665C-F854-4941-BE6D-BEE4265743FC";
name = Regular;
paths = (
{
closed = 1;
nodes = (
"0 315 OFFCURVE",
"30 285 OFFCURVE",
"68 285 CURVE SMOOTH",
"106 285 OFFCURVE",
"137 315 OFFCURVE",
"137 353 CURVE SMOOTH",
"137 428 OFFCURVE",
"199.001 490.002 OFFCURVE",
"274 490.002 CURVE SMOOTH",
"350 490.002 OFFCURVE",
"412 429 OFFCURVE",
"412 353 CURVE SMOOTH",
"412 254.001 OFFCURVE",
"464 165.001 OFFCURVE",
"548.002 116 CURVE SMOOTH",
"590.002 91 OFFCURVE",
"636.002 79 OFFCURVE",
"686.002 79 CURVE SMOOTH",
"785.003 79 OFFCURVE",
"874.003 131 OFFCURVE",
"923.003 216.001 CURVE SMOOTH",
"948.003 257 OFFCURVE",
"960.003 303 OFFCURVE",
"960.003 353 CURVE SMOOTH",
"960.003 391 OFFCURVE",
"930.003 421 OFFCURVE",
"892.003 421 CURVE SMOOTH",
"854.003 421 OFFCURVE",
"823.003 391 OFFCURVE",
"823.003 353 CURVE SMOOTH",
"823.003 278 OFFCURVE",
"761.002 216.001 OFFCURVE",
"686.002 216.001 CURVE SMOOTH",
"610.002 216.001 OFFCURVE",
"548.002 277 OFFCURVE",
"548.002 353 CURVE SMOOTH",
"548.002 452 OFFCURVE",
"496.002 541.002 OFFCURVE",
"412 591.002 CURVE SMOOTH",
"370 615.002 OFFCURVE",
"324 627.002 OFFCURVE",
"274 627.002 CURVE SMOOTH",
"175.001 627.002 OFFCURVE",
"86 575.002 OFFCURVE",
"37 491.002 CURVE SMOOTH",
"12 449 OFFCURVE",
"0 403 OFFCURVE",
"0 353 CURVE SMOOTH"
);
}
);
width = 960;
}
);
unicode = F141;
},
{
glyphname = uniF142;
layers = (
{
layerId = "8F1B665C-F854-4941-BE6D-BEE4265743FC";
name = Regular;
paths = (
{
closed = 1;
nodes = (
"300 780.003 LINE",
"420 780.003 LINE",
"420 840.003 LINE",
"540.002 840.003 LINE",
"540.002 780.003 LINE",
"660.002 780.003 LINE",
"660.002 660.002 LINE SMOOTH",
"660.002 627.002 OFFCURVE",
"633.002 600.002 OFFCURVE",
"600.002 600.002 CURVE SMOOTH",
"360 600.002 LINE SMOOTH",
"327 600.002 OFFCURVE",
"300 627.002 OFFCURVE",
"300 660.002 CURVE SMOOTH"
);
},
{
closed = 1;
nodes = (
"60 720.002 LINE SMOOTH",
"60 753.002 OFFCURVE",
"87 780.003 OFFCURVE",
"120 780.003 CURVE SMOOTH",
"240.001 780.003 LINE",
"240.001 660.002 LINE",
"180.001 660.002 LINE",
"180.001 0 LINE",
"780.003 0 LINE",
"780.003 660.002 LINE",
"720.002 660.002 LINE",
"720.002 780.003 LINE",
"840.003 780.003 LINE SMOOTH",
"873.003 780.003 OFFCURVE",
"900.003 753.002 OFFCURVE",
"900.003 720.002 CURVE SMOOTH",
"900.003 -60 LINE SMOOTH",
"900.003 -93 OFFCURVE",
"873.003 -120 OFFCURVE",
"840.003 -120 CURVE SMOOTH",
"120 -120 LINE SMOOTH",
"87 -120 OFFCURVE",
"60 -93 OFFCURVE",
"60 -60 CURVE SMOOTH"
);
},
{
closed = 1;
nodes = (
"540.002 720.002 LINE",
"420 720.002 LINE",
"420 660.002 LINE",
"540.002 660.002 LINE"
);
},
{
closed = 1;
nodes = (
"720.002 600.002 LINE",
"720.002 60 LINE",
"240.001 60 LINE",
"240.001 600.002 LINE",
"300 600.002 LINE",
"300 567.002 OFFCURVE",
"327 540.002 OFFCURVE",
"360 540.002 CURVE SMOOTH",
"600.002 540.002 LINE SMOOTH",
"633.002 540.002 OFFCURVE",
"660.002 567.002 OFFCURVE",
"660.002 600.002 CURVE"
);
},
{
closed = 1;
nodes = (
"660.002 480.002 LINE",
"300 480.002 LINE",
"300 420 LINE",
"660.002 420 LINE"
);
},
{
closed = 1;
nodes = (
"540.002 360 LINE",
"300 360 LINE",
"300 300 LINE",
"540.002 300 LINE"
);
},
{
closed = 1;
nodes = (
"600.002 240.001 LINE",
"300 240.001 LINE",
"300 180.001 LINE",
"600.002 180.001 LINE"
);
}
);
width = 960;
}
);
unicode = F142;
},
{
glyphname = uniF143;
layers = (
{
layerId = "8F1B665C-F854-4941-BE6D-BEE4265743FC";
name = Regular;
paths = (
{
closed = 1;
nodes = (
"700.002 302 LINE SMOOTH",
"678.002 302 OFFCURVE",
"660.002 284 OFFCURVE",
"660.002 262 CURVE SMOOTH",
"660.002 209.001 LINE",
"626.002 209.001 LINE",
"360 630.002 LINE",
"300 630.002 LINE",
"300 680.002 LINE SMOOTH",
"300 702.002 OFFCURVE",
"282 720.002 OFFCURVE",
"260 720.002 CURVE SMOOTH",
"40 720.002 LINE SMOOTH",
"18 720.002 OFFCURVE",
"0 702.002 OFFCURVE",
"0 680.002 CURVE SMOOTH",
"0 460 LINE SMOOTH",
"0 438 OFFCURVE",
"18 420 OFFCURVE",
"40 420 CURVE SMOOTH",
"260 420 LINE SMOOTH",
"282 420 OFFCURVE",
"300 438 OFFCURVE",
"300 460 CURVE SMOOTH",
"300 510.002 LINE",
"335 510.002 LINE",
"600.002 90 LINE",
"600.002 89 LINE",
"660.002 89 LINE",
"660.002 42 LINE SMOOTH",
"660.002 20 OFFCURVE",
"678.002 2 OFFCURVE",
"700.002 2 CURVE SMOOTH",
"920.003 2 LINE SMOOTH",
"942.003 2 OFFCURVE",
"960.003 20 OFFCURVE",
"960.003 42 CURVE SMOOTH",
"960.003 262 LINE SMOOTH",
"960.003 284 OFFCURVE",
"942.003 302 OFFCURVE",
"920.003 302 CURVE SMOOTH"
);
},
{
closed = 1;
nodes = (
"210.001 630.002 LINE",
"210.001 510.002 LINE",
"90 510.002 LINE",
"90 630.002 LINE"
);
},
{
closed = 1;
nodes = (
"870.003 212.001 LINE",
"870.003 92 LINE",
"750.002 92 LINE",
"750.002 212.001 LINE"
);
}
);
width = 960;
}
);
unicode = F143;
},
{
glyphname = uniF144;
layers = (
{
layerId = "8F1B665C-F854-4941-BE6D-BEE4265743FC";
name = Regular;
paths = (
{
closed = 1;
nodes = (
"700.002 300 LINE SMOOTH",
"678.002 300 OFFCURVE",
"660.002 282 OFFCURVE",
"660.002 260 CURVE SMOOTH",
"660.002 187.001 LINE",
"520.002 187.001 LINE",
"520.002 570.002 LINE SMOOTH",
"520.002 592.002 OFFCURVE",
"502.002 610.002 OFFCURVE",
"480.002 610.002 CURVE SMOOTH",
"300 610.002 LINE",
"300 680.002 LINE SMOOTH",
"300 702.002 OFFCURVE",
"282 720.002 OFFCURVE",
"260 720.002 CURVE SMOOTH",
"40 720.002 LINE SMOOTH",
"18 720.002 OFFCURVE",
"0 702.002 OFFCURVE",
"0 680.002 CURVE SMOOTH",
"0 460 LINE SMOOTH",
"0 438 OFFCURVE",
"18 420 OFFCURVE",
"40 420 CURVE SMOOTH",
"260 420 LINE SMOOTH",
"282 420 OFFCURVE",
"300 438 OFFCURVE",
"300 460 CURVE SMOOTH",
"300 530.002 LINE",
"440 530.002 LINE",
"440 147 LINE SMOOTH",
"440 125 OFFCURVE",
"458 107 OFFCURVE",
"480.002 107 CURVE SMOOTH",
"660.002 107 LINE",
"660.002 40 LINE SMOOTH",
"660.002 18 OFFCURVE",
"678.002 0 OFFCURVE",
"700.002 0 CURVE SMOOTH",
"920.003 0 LINE SMOOTH",
"942.003 0 OFFCURVE",
"960.003 18 OFFCURVE",
"960.003 40 CURVE SMOOTH",
"960.003 260 LINE SMOOTH",
"960.003 282 OFFCURVE",
"942.003 300 OFFCURVE",
"920.003 300 CURVE SMOOTH"
);
},
{
closed = 1;
nodes = (
"210.001 630.002 LINE",
"210.001 510.002 LINE",
"90 510.002 LINE",
"90 630.002 LINE"
);
},
{
closed = 1;
nodes = (
"870.003 210.001 LINE",
"870.003 90 LINE",
"750.002 90 LINE",
"750.002 210.001 LINE"
);
}
);
width = 960;
}
);
unicode = F144;
},
{
glyphname = uniF145;
layers = (
{
layerId = "8F1B665C-F854-4941-BE6D-BEE4265743FC";
name = Regular;
paths = (
{
closed = 1;
nodes = (
"660.002 187.001 LINE",
"581.002 187.001 OFFCURVE",
"520.002 210.001 OFFCURVE",
"520.002 362 CURVE SMOOTH",
"520.002 480.002 OFFCURVE",
"479.002 610.002 OFFCURVE",
"330 610.002 CURVE SMOOTH",
"300 610.002 LINE",
"300 680.002 LINE SMOOTH",
"300 702.002 OFFCURVE",
"282 720.002 OFFCURVE",
"260 720.002 CURVE SMOOTH",
"40 720.002 LINE SMOOTH",
"18 720.002 OFFCURVE",
"0 702.002 OFFCURVE",
"0 680.002 CURVE SMOOTH",
"0 460 LINE SMOOTH",
"0 438 OFFCURVE",
"18 420 OFFCURVE",
"40 420 CURVE SMOOTH",
"260 420 LINE SMOOTH",
"282 420 OFFCURVE",
"300 438 OFFCURVE",
"300 460 CURVE SMOOTH",
"300 530.002 LINE",
"378 530.002 OFFCURVE",
"440 508.002 OFFCURVE",
"440 362 CURVE SMOOTH",
"440 240.001 OFFCURVE",
"478.002 107 OFFCURVE",
"629.002 107 CURVE SMOOTH",
"660.002 107 LINE",
"660.002 40 LINE SMOOTH",
"660.002 18 OFFCURVE",
"678.002 0 OFFCURVE",
"700.002 0 CURVE SMOOTH",
"920.003 0 LINE SMOOTH",
"942.003 0 OFFCURVE",
"960.003 18 OFFCURVE",
"960.003 40 CURVE SMOOTH",
"960.003 260 LINE SMOOTH",
"960.003 282 OFFCURVE",
"942.003 300 OFFCURVE",
"920.003 300 CURVE SMOOTH",
"700.002 300 LINE SMOOTH",
"678.002 300 OFFCURVE",
"660.002 282 OFFCURVE",
"660.002 260 CURVE SMOOTH"
);
},
{
closed = 1;
nodes = (
"210.001 630.002 LINE",
"210.001 510.002 LINE",
"90 510.002 LINE",
"90 630.002 LINE"
);
},
{
closed = 1;
nodes = (
"870.003 210.001 LINE",
"870.003 90 LINE",
"750.002 90 LINE",
"750.002 210.001 LINE"
);
}
);
width = 960;
}
);
unicode = F145;
},
{
glyphname = uniF146;
layers = (
{
layerId = "8F1B665C-F854-4941-BE6D-BEE4265743FC";
name = Regular;
paths = (
{
closed = 1;
nodes = (
"850.003 300 LINE",
"850.003 629.002 OFFCURVE",
"401 610.002 OFFCURVE",
"360 610.002 CURVE SMOOTH",
"300 610.002 LINE",
"300 680.002 LINE SMOOTH",
"300 702.002 OFFCURVE",
"282 720.002 OFFCURVE",
"260 720.002 CURVE SMOOTH",
"40 720.002 LINE SMOOTH",
"18 720.002 OFFCURVE",
"0 702.002 OFFCURVE",
"0 680.002 CURVE SMOOTH",
"0 460 LINE SMOOTH",
"0 438 OFFCURVE",
"18 420 OFFCURVE",
"40 420 CURVE SMOOTH",
"260 420 LINE SMOOTH",
"282 420 OFFCURVE",
"300 438 OFFCURVE",
"300 460 CURVE SMOOTH",
"300 530.002 LINE",
"339 530.002 OFFCURVE",
"770.003 570.002 OFFCURVE",
"770.003 300 CURVE",
"700.002 300 LINE SMOOTH",
"678.002 300 OFFCURVE",
"660.002 282 OFFCURVE",
"660.002 260 CURVE SMOOTH",
"660.002 40 LINE SMOOTH",
"660.002 18 OFFCURVE",
"678.002 0 OFFCURVE",
"700.002 0 CURVE SMOOTH",
"920.003 0 LINE SMOOTH",
"942.003 0 OFFCURVE",
"960.003 18 OFFCURVE",
"960.003 40 CURVE SMOOTH",
"960.003 260 LINE SMOOTH",
"960.003 282 OFFCURVE",
"942.003 300 OFFCURVE",
"920.003 300 CURVE SMOOTH"
);
},
{
closed = 1;
nodes = (
"210.001 630.002 LINE",
"210.001 510.002 LINE",
"90 510.002 LINE",
"90 630.002 LINE"
);
},
{
closed = 1;
nodes = (
"870.003 210.001 LINE",
"870.003 90 LINE",
"750.002 90 LINE",
"750.002 210.001 LINE"
);
}
);
width = 960;
}
);
unicode = F146;
},
{
glyphname = uniF147;
layers = (
{
layerId = "8F1B665C-F854-4941-BE6D-BEE4265743FC";
name = Regular;
paths = (
{
closed = 1;
nodes = (
"90 840.003 LINE SMOOTH",
"73 840.003 OFFCURVE",
"60 827.003 OFFCURVE",
"60 810.003 CURVE SMOOTH",
"60 -90 LINE SMOOTH",
"60 -107 OFFCURVE",
"73 -120 OFFCURVE",
"90 -120 CURVE SMOOTH",
"870.003 -120 LINE SMOOTH",
"887.003 -120 OFFCURVE",
"900.003 -107 OFFCURVE",
"900.003 -90 CURVE SMOOTH",
"900.003 810.003 LINE SMOOTH",
"900.003 827.003 OFFCURVE",
"887.003 840.003 OFFCURVE",
"870.003 840.003 CURVE SMOOTH"
);
},
{
closed = 1;
nodes = (
"780.003 10 LINE SMOOTH",
"780.003 4 OFFCURVE",
"776.003 0 OFFCURVE",
"770.003 0 CURVE SMOOTH",
"190.001 0 LINE SMOOTH",
"184.001 0 OFFCURVE",
"180.001 4 OFFCURVE",
"180.001 10 CURVE SMOOTH",
"180.001 710.002 LINE SMOOTH",
"180.001 716.002 OFFCURVE",
"184.001 720.002 OFFCURVE",
"190.001 720.002 CURVE SMOOTH",
"770.003 720.002 LINE SMOOTH",
"776.003 720.002 OFFCURVE",
"780.003 716.002 OFFCURVE",
"780.003 710.002 CURVE SMOOTH"
);
},
{
closed = 1;
nodes = (
"240.001 480.002 LINE",
"240.001 600.002 LINE",
"360 600.002 LINE",
"360 480.002 LINE"
);
},
{
closed = 1;
nodes = (
"420 480.002 LINE",
"420 600.002 LINE",
"721.002 600.002 LINE",
"721.002 480.002 LINE"
);
},
{
closed = 1;
nodes = (
"240.001 300 LINE",
"240.001 420 LINE",
"360 420 LINE",
"360 300 LINE"
);
},
{
closed = 1;
nodes = (
"420 300 LINE",
"420 420 LINE",
"719.002 420 LINE",
"719.002 300 LINE"
);
},
{
closed = 1;
nodes = (
"240.001 120 LINE",
"240.001 240.001 LINE",
"360 240.001 LINE",
"360 120 LINE"
);
},
{
closed = 1;
nodes = (
"420 120 LINE",
"420 240.001 LINE",
"720.002 240.001 LINE",
"720.002 120 LINE"
);
}
);
width = 960;
}
);
unicode = F147;
},
{
glyphname = uniF148;
layers = (
{
layerId = "8F1B665C-F854-4941-BE6D-BEE4265743FC";
name = Regular;
paths = (
{
closed = 1;
nodes = (
"0 660.002 LINE SMOOTH",
"0 759.002 OFFCURVE",
"81 840.003 OFFCURVE",
"180.001 840.003 CURVE SMOOTH",
"550.002 840.003 LINE",
"430 720.002 LINE",
"180.001 720.002 LINE SMOOTH",
"147 720.002 OFFCURVE",
"120 693.002 OFFCURVE",
"120 660.002 CURVE SMOOTH",
"120 60 LINE SMOOTH",
"120 27 OFFCURVE",
"147 0 OFFCURVE",
"180.001 0 CURVE SMOOTH",
"780.003 0 LINE SMOOTH",
"813.003 0 OFFCURVE",
"840.003 27 OFFCURVE",
"840.003 60 CURVE SMOOTH",
"840.003 310 LINE",
"960.003 430 LINE",
"960.003 60 LINE SMOOTH",
"960.003 -39 OFFCURVE",
"879.003 -120 OFFCURVE",
"780.003 -120 CURVE SMOOTH",
"180.001 -120 LINE SMOOTH",
"81 -120 OFFCURVE",
"0 -39 OFFCURVE",
"0 60 CURVE SMOOTH"
);
},
{
closed = 1;
nodes = (
"960.003 600.002 LINE",
"540.002 180.001 LINE",
"180.001 60 LINE",
"300 420 LINE",
"720.002 840.003 LINE"
);
},
{
closed = 1;
nodes = (
"720.002 480.002 LINE",
"600.002 600.002 LINE",
"420 420 LINE",
"540.002 300 LINE"
);
},
{
closed = 1;
nodes = (
"480.002 240.001 LINE",
"360 360 LINE",
"300 180.001 LINE"
);
}
);
width = 960;
}
);
unicode = F148;
},
{
glyphname = uniF149;
layers = (
{
layerId = "8F1B665C-F854-4941-BE6D-BEE4265743FC";
name = Regular;
paths = (
{
closed = 1;
nodes = (
"959.003 180.001 LINE SMOOTH",
"959.003 213.001 OFFCURVE",
"933.003 240.001 OFFCURVE",
"899.003 240.001 CURVE SMOOTH",
"783.003 240.001 LINE",
"776.003 240.001 LINE",
"660.002 240.001 LINE SMOOTH",
"626.002 240.001 OFFCURVE",
"599.002 213.001 OFFCURVE",
"599.002 180.001 CURVE SMOOTH",
"599.002 121 LINE",
"566.002 121 OFFCURVE",
"539.002 147 OFFCURVE",
"539.002 181.001 CURVE SMOOTH",
"539.002 241.001 LINE SMOOTH",
"539.002 286 OFFCURVE",
"523.002 327 OFFCURVE",
"492.002 360 CURVE",
"523.002 394 OFFCURVE",
"539.002 435 OFFCURVE",
"539.002 480.002 CURVE SMOOTH",
"539.002 541.002 LINE SMOOTH",
"539.002 574.002 OFFCURVE",
"566.002 600.002 OFFCURVE",
"599.002 600.002 CURVE",
"599.002 540.002 LINE SMOOTH",
"599.002 507.002 OFFCURVE",
"626.002 480.002 OFFCURVE",
"660.002 480.002 CURVE SMOOTH",
"899.003 480.002 LINE SMOOTH",
"933.003 480.002 OFFCURVE",
"959.003 507.002 OFFCURVE",
"959.003 540.002 CURVE SMOOTH",
"959.003 654.002 LINE",
"960.003 659.002 OFFCURVE",
"960.003 663.002 OFFCURVE",
"959.003 667.002 CURVE",
"959.003 780.003 LINE SMOOTH",
"959.003 813.003 OFFCURVE",
"933.003 840.003 OFFCURVE",
"899.003 840.003 CURVE SMOOTH",
"660.002 840.003 LINE SMOOTH",
"626.002 840.003 OFFCURVE",
"599.002 813.003 OFFCURVE",
"599.002 780.003 CURVE SMOOTH",
"599.002 720.002 LINE",
"500.002 720.002 OFFCURVE",
"419 639.002 OFFCURVE",
"419 541.002 CURVE SMOOTH",
"419 480.002 LINE SMOOTH",
"419 447 OFFCURVE",
"393 421 OFFCURVE",
"360 421 CURVE",
"360 480.002 LINE SMOOTH",
"360 513.002 OFFCURVE",
"333 540.002 OFFCURVE",
"300 540.002 CURVE",
"60 480.002 LINE",
"27 480.002 OFFCURVE",
"0 453 OFFCURVE",
"0 420 CURVE SMOOTH",
"0 300 LINE SMOOTH",
"0 267 OFFCURVE",
"27 240.001 OFFCURVE",
"60 240.001 CURVE",
"300 180.001 LINE",
"333 180.001 OFFCURVE",
"360 207.001 OFFCURVE",
"360 240.001 CURVE SMOOTH",
"360 301 LINE",
"393 300 OFFCURVE",
"419 274 OFFCURVE",
"419 241.001 CURVE SMOOTH",
"419 181.001 LINE SMOOTH",
"419 82 OFFCURVE",
"500.002 1 OFFCURVE",
"599.002 1 CURVE",
"599.002 -60 LINE SMOOTH",
"599.002 -93 OFFCURVE",
"626.002 -120 OFFCURVE",
"660.002 -120 CURVE SMOOTH",
"899.003 -120 LINE SMOOTH",
"933.003 -120 OFFCURVE",
"959.003 -93 OFFCURVE",
"959.003 -60 CURVE SMOOTH",
"959.003 54 LINE",
"960.003 58 OFFCURVE",
"960.003 63 OFFCURVE",
"959.003 67 CURVE"
);
},
{
closed = 1;
nodes = (
"690.002 724.002 LINE SMOOTH",
"690.002 741.002 OFFCURVE",
"703.002 754.002 OFFCURVE",
"720.002 754.002 CURVE SMOOTH",
"840.003 754.002 LINE SMOOTH",
"857.003 754.002 OFFCURVE",
"870.003 741.002 OFFCURVE",
"870.003 724.002 CURVE SMOOTH",
"870.003 604.002 LINE SMOOTH",
"870.003 587.002 OFFCURVE",
"857.003 574.002 OFFCURVE",
"840.003 574.002 CURVE SMOOTH",
"720.002 574.002 LINE SMOOTH",
"703.002 574.002 OFFCURVE",
"690.002 587.002 OFFCURVE",
"690.002 604.002 CURVE SMOOTH"
);
},
{
closed = 1;
nodes = (
"270 310 LINE SMOOTH",
"270 288 OFFCURVE",
"252.001 270 OFFCURVE",
"230.001 270 CURVE",
"130 300 LINE",
"108 300 OFFCURVE",
"90 318 OFFCURVE",
"90 340 CURVE SMOOTH",
"90 380 LINE SMOOTH",
"90 402 OFFCURVE",
"108 420 OFFCURVE",
"130 420 CURVE",
"230.001 450 LINE",
"252.001 450 OFFCURVE",
"270 432 OFFCURVE",
"270 410 CURVE SMOOTH"
);
},
{
closed = 1;
nodes = (
"870.003 0 LINE SMOOTH",
"870.003 -17 OFFCURVE",
"857.003 -30 OFFCURVE",
"840.003 -30 CURVE SMOOTH",
"720.002 -30 LINE SMOOTH",
"703.002 -30 OFFCURVE",
"690.002 -17 OFFCURVE",
"690.002 0 CURVE SMOOTH",
"690.002 120 LINE SMOOTH",
"690.002 137 OFFCURVE",
"703.002 150 OFFCURVE",
"720.002 150 CURVE SMOOTH",
"840.003 150 LINE SMOOTH",
"857.003 150 OFFCURVE",
"870.003 137 OFFCURVE",
"870.003 120 CURVE SMOOTH"
);
}
);
width = 960;
}
);
unicode = F149;
},
{
glyphname = uniF14A;
layers = (
{
layerId = "8F1B665C-F854-4941-BE6D-BEE4265743FC";
name = Regular;
paths = (
{
closed = 1;
nodes = (
"120 60 LINE",
"120 -39 OFFCURVE",
"202.001 -120 OFFCURVE",
"300 -120 CURVE SMOOTH",
"501.002 -120 LINE",
"458 -90 OFFCURVE",
"423 -50 OFFCURVE",
"398 0 CURVE",
"300 0 LINE SMOOTH",
"267 0 OFFCURVE",
"240.001 27 OFFCURVE",
"240.001 60 CURVE SMOOTH",
"240.001 660.002 LINE SMOOTH",
"240.001 693.002 OFFCURVE",
"267 720.002 OFFCURVE",
"300 720.002 CURVE SMOOTH",
"780.003 720.002 LINE SMOOTH",
"813.003 720.002 OFFCURVE",
"840.003 693.002 OFFCURVE",
"840.003 660.002 CURVE SMOOTH",
"840.003 443 LINE",
"890.003 417 OFFCURVE",
"930.003 382 OFFCURVE",
"960.003 339 CURVE",
"960.003 660.002 LINE SMOOTH",
"960.003 759.002 OFFCURVE",
"879.003 840.003 OFFCURVE",
"780.003 840.003 CURVE SMOOTH",
"300 840.003 LINE SMOOTH",
"201.001 840.003 OFFCURVE",
"120 759.002 OFFCURVE",
"120 660.002 CURVE",
"60 660.002 LINE SMOOTH",
"27 660.002 OFFCURVE",
"0 633.002 OFFCURVE",
"0 600.002 CURVE SMOOTH",
"0 567.002 OFFCURVE",
"27 540.002 OFFCURVE",
"60 540.002 CURVE SMOOTH",
"120 540.002 LINE",
"120 420 LINE",
"60 420 LINE SMOOTH",
"27 420 OFFCURVE",
"0 393 OFFCURVE",
"0 360 CURVE SMOOTH",
"0 327 OFFCURVE",
"27 300 OFFCURVE",
"60 300 CURVE SMOOTH",
"120 300 LINE",
"120 180.001 LINE",
"60 180.001 LINE SMOOTH",
"44 180.001 OFFCURVE",
"30 174.001 OFFCURVE",
"18 163.001 CURVE",
"6 151 OFFCURVE",
"0 136 OFFCURVE",
"0 120 CURVE SMOOTH",
"0 87 OFFCURVE",
"27 60 OFFCURVE",
"60 60 CURVE SMOOTH"
);
},
{
closed = 1;
nodes = (
"780.003 660.002 LINE",
"300 660.002 LINE",
"300 600.002 LINE",
"780.003 600.002 LINE"
);
},
{
closed = 1;
nodes = (
"780.003 540.002 LINE",
"300 540.002 LINE",
"300 480.002 LINE",
"780.003 480.002 LINE"
);
},
{
closed = 1;
nodes = (
"300 420 LINE",
"300 360 LINE",
"437 360 LINE",
"458 384 OFFCURVE",
"479.002 405 OFFCURVE",
"501.002 420 CURVE"
);
},
{
closed = 1;
nodes = (
"427 222.001 OFFCURVE",
"420 187.001 OFFCURVE",
"420 150 CURVE SMOOTH",
"420 77 OFFCURVE",
"450 8 OFFCURVE",
"499.002 -41 CURVE SMOOTH",
"548.002 -90 OFFCURVE",
"617.002 -120 OFFCURVE",
"690.002 -120 CURVE SMOOTH",
"763.002 -120 OFFCURVE",
"833.003 -90 OFFCURVE",
"881.003 -41 CURVE SMOOTH",
"930.003 8 OFFCURVE",
"960.003 77 OFFCURVE",
"960.003 150 CURVE SMOOTH",
"960.003 223.001 OFFCURVE",
"930.003 293 OFFCURVE",
"881.003 341 CURVE SMOOTH",
"833.003 390 OFFCURVE",
"763.002 420 OFFCURVE",
"690.002 420 CURVE SMOOTH",
"617.002 420 OFFCURVE",
"548.002 390 OFFCURVE",
"499.002 341 CURVE SMOOTH",
"475.002 317 OFFCURVE",
"456 288 OFFCURVE",
"442 255.001 CURVE SMOOTH"
);
},
{
closed = 1;
nodes = (
"300 300 LINE",
"300 240.001 LINE",
"374 240.001 LINE",
"380 262 OFFCURVE",
"388 282 OFFCURVE",
"398 300 CURVE"
);
},
{
closed = 1;
nodes = (
"540.002 233.001 OFFCURVE",
"607.002 300 OFFCURVE",
"690.002 300 CURVE SMOOTH",
"773.003 300 OFFCURVE",
"840.003 233.001 OFFCURVE",
"840.003 150 CURVE SMOOTH",
"840.003 68 OFFCURVE",
"773.003 0 OFFCURVE",
"690.002 0 CURVE SMOOTH",
"607.002 0 OFFCURVE",
"540.002 68 OFFCURVE",
"540.002 150 CURVE SMOOTH"
);
},
{
closed = 1;
nodes = (
"660.002 150 LINE SMOOTH",
"660.002 134 OFFCURVE",
"674.002 120 OFFCURVE",
"690.002 120 CURVE SMOOTH",
"750.002 120 LINE SMOOTH",
"766.002 120 OFFCURVE",
"780.003 134 OFFCURVE",
"780.003 150 CURVE SMOOTH",
"780.003 166.001 OFFCURVE",
"766.002 180.001 OFFCURVE",
"750.002 180.001 CURVE SMOOTH",
"720.002 180.001 LINE",
"720.002 210.001 LINE SMOOTH",
"720.002 226.001 OFFCURVE",
"706.002 240.001 OFFCURVE",
"690.002 240.001 CURVE SMOOTH",
"674.002 240.001 OFFCURVE",
"660.002 226.001 OFFCURVE",
"660.002 210.001 CURVE SMOOTH"
);
},
{
closed = 1;
nodes = (
"300 180.001 LINE",
"300 120 LINE",
"363 120 LINE",
"363 121 OFFCURVE",
"363 126 OFFCURVE",
"362 133 CURVE",
"360 140 OFFCURVE",
"360 146 OFFCURVE",
"360 150 CURVE SMOOTH",
"360 154 OFFCURVE",
"360 160.001 OFFCURVE",
"362 167.001 CURVE",
"363 174.001 OFFCURVE",
"363 179.001 OFFCURVE",
"363 180.001 CURVE"
);
}
);
width = 960;
}
);
unicode = F14A;
},
{
glyphname = uniF14B;
layers = (
{
layerId = "8F1B665C-F854-4941-BE6D-BEE4265743FC";
name = Regular;
paths = (
{
closed = 1;
nodes = (
"13 487.002 OFFCURVE",
"0 425 OFFCURVE",
"0 360 CURVE SMOOTH",
"0 230.001 OFFCURVE",
"54 106 OFFCURVE",
"141 21 CURVE SMOOTH",
"226.001 -66 OFFCURVE",
"350 -120 OFFCURVE",
"480.002 -120 CURVE SMOOTH",
"610.002 -120 OFFCURVE",
"734.002 -66 OFFCURVE",
"820.003 21 CURVE SMOOTH",
"906.003 106 OFFCURVE",
"960.003 230.001 OFFCURVE",
"960.003 360 CURVE SMOOTH",
"960.003 491.002 OFFCURVE",
"906.003 614.002 OFFCURVE",
"820.003 700.002 CURVE SMOOTH",
"734.002 786.003 OFFCURVE",
"611.002 840.003 OFFCURVE",
"480.002 840.003 CURVE SMOOTH",
"350 840.003 OFFCURVE",
"226.001 786.003 OFFCURVE",
"141 700.002 CURVE SMOOTH",
"98 657.002 OFFCURVE",
"63 606.002 OFFCURVE",
"38 547.002 CURVE SMOOTH"
);
},
{
closed = 1;
nodes = (
"136 234.001 OFFCURVE",
"120 295 OFFCURVE",
"120 360 CURVE SMOOTH",
"120 491.002 OFFCURVE",
"189.001 608.002 OFFCURVE",
"300 672.002 CURVE SMOOTH",
"354 704.002 OFFCURVE",
"415 720.002 OFFCURVE",
"480.002 720.002 CURVE SMOOTH",
"611.002 720.002 OFFCURVE",
"728.002 651.002 OFFCURVE",
"792.003 541.002 CURVE SMOOTH",
"824.003 486.002 OFFCURVE",
"840.003 425 OFFCURVE",
"840.003 360 CURVE SMOOTH",
"840.003 229.001 OFFCURVE",
"771.003 113 OFFCURVE",
"661.002 48 CURVE SMOOTH",
"606.002 16 OFFCURVE",
"545.002 0 OFFCURVE",
"480.002 0 CURVE SMOOTH",
"349 0 OFFCURVE",
"233.001 69 OFFCURVE",
"168.001 180.001 CURVE SMOOTH"
);
},
{
closed = 1;
nodes = (
"426 571.002 OFFCURVE",
"420 556.002 OFFCURVE",
"420 540.002 CURVE SMOOTH",
"420 507.002 OFFCURVE",
"447 480.002 OFFCURVE",
"480.002 480.002 CURVE SMOOTH",
"513.002 480.002 OFFCURVE",
"540.002 507.002 OFFCURVE",
"540.002 540.002 CURVE SMOOTH",
"540.002 573.002 OFFCURVE",
"513.002 600.002 OFFCURVE",
"480.002 600.002 CURVE SMOOTH",
"464 600.002 OFFCURVE",
"450 594.002 OFFCURVE",
"438 583.002 CURVE"
);
},
{
closed = 1;
nodes = (
"540.002 420 LINE",
"420 420 LINE",
"420 120 LINE",
"540.002 120 LINE"
);
}
);
width = 960;
}
);
unicode = F14B;
},
{
glyphname = uniF14C;
layers = (
{
layerId = "8F1B665C-F854-4941-BE6D-BEE4265743FC";
name = Regular;
paths = (
{
closed = 1;
nodes = (
"4 60 LINE SMOOTH",
"4 -39 OFFCURVE",
"85 -120 OFFCURVE",
"184.001 -120 CURVE SMOOTH",
"784.003 -120 LINE SMOOTH",
"883.003 -120 OFFCURVE",
"964.003 -39 OFFCURVE",
"964.003 60 CURVE SMOOTH",
"964.003 660.002 LINE SMOOTH",
"964.003 759.002 OFFCURVE",
"883.003 840.003 OFFCURVE",
"784.003 840.003 CURVE SMOOTH",
"184.001 840.003 LINE SMOOTH",
"85 840.003 OFFCURVE",
"4 759.002 OFFCURVE",
"4 660.002 CURVE SMOOTH"
);
},
{
closed = 1;
nodes = (
"130 690.002 OFFCURVE",
"124 704.002 OFFCURVE",
"124 720.002 CURVE SMOOTH",
"124 753.002 OFFCURVE",
"151 780.003 OFFCURVE",
"184.001 780.003 CURVE SMOOTH",
"217.001 780.003 OFFCURVE",
"244.001 753.002 OFFCURVE",
"244.001 720.002 CURVE SMOOTH",
"244.001 687.002 OFFCURVE",
"217.001 660.002 OFFCURVE",
"184.001 660.002 CURVE SMOOTH",
"168.001 660.002 OFFCURVE",
"154 666.002 OFFCURVE",
"142 678.002 CURVE SMOOTH"
);
},
{
closed = 1;
nodes = (
"124 600.002 LINE",
"844.003 600.002 LINE",
"844.003 60 LINE SMOOTH",
"844.003 27 OFFCURVE",
"817.003 0 OFFCURVE",
"784.003 0 CURVE SMOOTH",
"184.001 0 LINE SMOOTH",
"151 0 OFFCURVE",
"124 27 OFFCURVE",
"124 60 CURVE SMOOTH"
);
},
{
closed = 1;
nodes = (
"720.002 480.002 LINE",
"240.001 480.002 LINE",
"240.001 420 LINE",
"720.002 420 LINE"
);
},
{
closed = 1;
nodes = (
"600.002 360 LINE",
"240.001 360 LINE",
"240.001 300 LINE",
"600.002 300 LINE"
);
},
{
closed = 1;
nodes = (
"720.002 240.001 LINE",
"240.001 240.001 LINE",
"240.001 180.001 LINE",
"720.002 180.001 LINE"
);
}
);
width = 960;
}
);
unicode = F14C;
},
{
glyphname = uniF14D;
layers = (
{
layerId = "8F1B665C-F854-4941-BE6D-BEE4265743FC";
name = Regular;
paths = (
{
closed = 1;
nodes = (
"600.002 420 LINE",
"600.002 198.001 LINE",
"601.002 181.001 OFFCURVE",
"598.002 180.001 OFFCURVE",
"580.002 180.001 CURVE SMOOTH",
"378 180.001 LINE SMOOTH",
"362 180.001 OFFCURVE",
"360 181.001 OFFCURVE",
"360 198.001 CURVE SMOOTH",
"360 421 LINE",
"140 421 LINE",
"124 420 OFFCURVE",
"120 422 OFFCURVE",
"120 438 CURVE SMOOTH",
"120 584.002 LINE SMOOTH",
"120 601.002 OFFCURVE",
"124 600.002 OFFCURVE",
"140 600.002 CURVE SMOOTH",
"360 600.002 LINE",
"360 825.003 LINE",
"360 825.003 OFFCURVE",
"364 840.003 OFFCURVE",
"380 840.003 CURVE SMOOTH",
"584.002 840.003 LINE SMOOTH",
"602.002 840.003 OFFCURVE",
"600.002 825.003 OFFCURVE",
"600.002 824.003 CURVE SMOOTH",
"600.002 600.002 LINE",
"820.003 600.002 LINE SMOOTH",
"838.003 600.002 OFFCURVE",
"840.003 601.002 OFFCURVE",
"840.003 584.002 CURVE SMOOTH",
"840.003 438 LINE SMOOTH",
"840.003 422 OFFCURVE",
"838.003 420 OFFCURVE",
"820.003 420 CURVE SMOOTH"
);
},
{
closed = 1;
nodes = (
"829.003 60 LINE SMOOTH",
"840.003 60 OFFCURVE",
"840.003 60 OFFCURVE",
"840.003 49 CURVE SMOOTH",
"840.003 -110 LINE SMOOTH",
"840.003 -120 OFFCURVE",
"840.003 -120 OFFCURVE",
"829.003 -120 CURVE SMOOTH",
"131 -120 LINE SMOOTH",
"120 -120 OFFCURVE",
"120 -120 OFFCURVE",
"120 -110 CURVE SMOOTH",
"120 49 LINE SMOOTH",
"120 60 OFFCURVE",
"120 60 OFFCURVE",
"131 60 CURVE SMOOTH"
);
}
);
width = 960;
}
);
unicode = F14D;
},
{
glyphname = uniF14E;
layers = (
{
layerId = "8F1B665C-F854-4941-BE6D-BEE4265743FC";
name = Regular;
paths = (
{
closed = 1;
nodes = (
"0 60 LINE SMOOTH",
"0 -40 OFFCURVE",
"83 -120 OFFCURVE",
"180.001 -120 CURVE SMOOTH",
"780.003 -120 LINE SMOOTH",
"879.003 -120 OFFCURVE",
"960.003 -39 OFFCURVE",
"960.003 60 CURVE SMOOTH",
"960.003 660.002 LINE SMOOTH",
"960.003 759.002 OFFCURVE",
"879.003 840.003 OFFCURVE",
"780.003 840.003 CURVE SMOOTH",
"660.002 840.003 LINE",
"660.002 720.002 LINE",
"780.003 720.002 LINE SMOOTH",
"813.003 720.002 OFFCURVE",
"840.003 693.002 OFFCURVE",
"840.003 660.002 CURVE SMOOTH",
"840.003 60 LINE SMOOTH",
"840.003 27 OFFCURVE",
"813.003 0 OFFCURVE",
"780.003 0 CURVE SMOOTH",
"180.001 0 LINE SMOOTH",
"147 0 OFFCURVE",
"120 27 OFFCURVE",
"120 60 CURVE SMOOTH",
"120 660.002 LINE SMOOTH",
"120 693.002 OFFCURVE",
"147 720.002 OFFCURVE",
"180.001 720.002 CURVE SMOOTH",
"300 720.002 LINE",
"300 840.003 LINE",
"180.001 840.003 LINE SMOOTH",
"81 840.003 OFFCURVE",
"0 759.002 OFFCURVE",
"0 660.002 CURVE SMOOTH"
);
},
{
closed = 1;
nodes = (
"420 840.003 LINE",
"420 600.002 LINE",
"300 600.002 LINE",
"480.002 360 LINE",
"660.002 600.002 LINE",
"540.002 600.002 LINE",
"540.002 840.003 LINE"
);
},
{
closed = 1;
nodes = (
"660.002 240.001 LINE",
"300 240.001 LINE",
"180.001 60 LINE",
"780.003 60 LINE"
);
}
);
width = 960;
}
);
unicode = F14E;
},
{
glyphname = uniF14F;
layers = (
{
layerId = "8F1B665C-F854-4941-BE6D-BEE4265743FC";
name = Regular;
paths = (
{
closed = 1;
nodes = (
"660.002 720.002 LINE SMOOTH",
"759.002 720.002 OFFCURVE",
"840.003 639.002 OFFCURVE",
"840.003 540.002 CURVE SMOOTH",
"840.003 71 LINE",
"911.003 95 OFFCURVE",
"960.003 162.001 OFFCURVE",
"960.003 240.001 CURVE SMOOTH",
"960.003 660.002 LINE SMOOTH",
"960.003 759.002 OFFCURVE",
"879.003 840.003 OFFCURVE",
"780.003 840.003 CURVE SMOOTH",
"360 840.003 LINE SMOOTH",
"283 840.003 OFFCURVE",
"216.001 791.003 OFFCURVE",
"191.001 720.002 CURVE"
);
},
{
closed = 1;
nodes = (
"0 60 LINE SMOOTH",
"0 -40 OFFCURVE",
"81 -120 OFFCURVE",
"180.001 -120 CURVE SMOOTH",
"600.002 -120 LINE SMOOTH",
"699.002 -120 OFFCURVE",
"780.003 -40 OFFCURVE",
"780.003 60 CURVE SMOOTH",
"780.003 480.002 LINE SMOOTH",
"780.003 579.002 OFFCURVE",
"699.002 660.002 OFFCURVE",
"600.002 660.002 CURVE SMOOTH",
"180.001 660.002 LINE SMOOTH",
"81 660.002 OFFCURVE",
"0 579.002 OFFCURVE",
"0 480.002 CURVE SMOOTH"
);
},
{
closed = 1;
nodes = (
"120 480.002 LINE SMOOTH",
"120 513.002 OFFCURVE",
"147 540.002 OFFCURVE",
"180.001 540.002 CURVE SMOOTH",
"600.002 540.002 LINE SMOOTH",
"633.002 540.002 OFFCURVE",
"660.002 513.002 OFFCURVE",
"660.002 480.002 CURVE SMOOTH",
"660.002 60 LINE SMOOTH",
"660.002 26 OFFCURVE",
"633.002 0 OFFCURVE",
"600.002 0 CURVE SMOOTH",
"180.001 0 LINE SMOOTH",
"147 0 OFFCURVE",
"120 26 OFFCURVE",
"120 60 CURVE SMOOTH"
);
}
);
width = 960;
}
);
unicode = F14F;
},
{
glyphname = uniF150;
layers = (
{
layerId = "8F1B665C-F854-4941-BE6D-BEE4265743FC";
name = Regular;
paths = (
{
closed = 1;
nodes = (
"867.003 299 LINE",
"867.003 321 LINE",
"870.003 347 OFFCURVE",
"870.003 373 OFFCURVE",
"867.003 399 CURVE",
"867.003 422 LINE",
"960.003 483.002 LINE",
"954.003 510.002 OFFCURVE",
"948.003 531.002 OFFCURVE",
"940.003 550.002 CURVE SMOOTH",
"931.003 570.002 OFFCURVE",
"922.003 589.002 OFFCURVE",
"905.003 614.002 CURVE",
"792.003 588.002 LINE",
"783.003 608.002 LINE",
"766.002 628.002 OFFCURVE",
"748.002 646.002 OFFCURVE",
"728.002 662.002 CURVE",
"708.002 672.002 LINE",
"734.002 784.003 LINE",
"690.002 813.003 OFFCURVE",
"651.002 829.003 OFFCURVE",
"602.002 840.003 CURVE",
"541.002 746.002 LINE",
"519.002 746.002 LINE",
"493.002 750.002 OFFCURVE",
"467 750.002 OFFCURVE",
"441 747.002 CURVE",
"419 747.002 LINE",
"358 840.003 LINE",
"330 834.003 OFFCURVE",
"310 828.003 OFFCURVE",
"290 820.003 CURVE",
"270 811.003 OFFCURVE",
"252.001 802.003 OFFCURVE",
"226.001 785.003 CURVE",
"252.001 672.002 LINE",
"233.001 663.002 LINE",
"212.001 646.002 OFFCURVE",
"194.001 628.002 OFFCURVE",
"178.001 608.002 CURVE",
"168.001 588.002 LINE",
"56 614.002 LINE",
"28 570.002 OFFCURVE",
"11 531.002 OFFCURVE",
"0 482.002 CURVE",
"95 421 LINE",
"93 399 LINE SMOOTH",
"90 373 OFFCURVE",
"90 347 OFFCURVE",
"93 321 CURVE SMOOTH",
"95 299 LINE",
"0 238.001 LINE",
"6 210.001 OFFCURVE",
"12 190.001 OFFCURVE",
"20 170.001 CURVE",
"29 150 OFFCURVE",
"38 132 OFFCURVE",
"56 106 CURVE",
"168.001 132 LINE",
"178.001 113 LINE",
"194.001 92 OFFCURVE",
"212.001 74 OFFCURVE",
"233.001 58 CURVE",
"252.001 48 LINE",
"226.001 -64 LINE",
"270 -92 OFFCURVE",
"309 -109 OFFCURVE",
"358 -120 CURVE",
"419 -25 LINE",
"441 -27 LINE SMOOTH",
"467 -30 OFFCURVE",
"493.002 -30 OFFCURVE",
"519.002 -27 CURVE SMOOTH",
"542.002 -25 LINE",
"603.002 -120 LINE",
"630.002 -114 OFFCURVE",
"651.002 -108 OFFCURVE",
"670.002 -100 CURVE SMOOTH",
"690.002 -91 OFFCURVE",
"709.002 -82 OFFCURVE",
"734.002 -64 CURVE",
"708.002 48 LINE",
"728.002 58 LINE",
"748.002 74 OFFCURVE",
"766.002 92 OFFCURVE",
"782.003 113 CURVE",
"792.003 132 LINE",
"904.003 106 LINE",
"933.003 150 OFFCURVE",
"949.003 189.001 OFFCURVE",
"960.003 238.001 CURVE"
);
},
{
closed = 1;
nodes = (
"354 120 OFFCURVE",
"240.001 234.001 OFFCURVE",
"240.001 360 CURVE SMOOTH",
"240.001 486.002 OFFCURVE",
"354 600.002 OFFCURVE",
"480.002 600.002 CURVE SMOOTH",
"606.002 600.002 OFFCURVE",
"720.002 486.002 OFFCURVE",
"720.002 360 CURVE SMOOTH",
"720.002 234.001 OFFCURVE",
"606.002 120 OFFCURVE",
"480.002 120 CURVE SMOOTH"
);
}
);
width = 960;
}
);
unicode = F150;
},
{
glyphname = uniF151;
lastChange = "2014-04-03 11:35:16 +0800";
layers = (
{
layerId = "8F1B665C-F854-4941-BE6D-BEE4265743FC";
name = Regular;
paths = (
{
closed = 1;
nodes = (
"880 640 LINE",
"80 640 LINE",
"80 520 LINE",
"880 520 LINE"
);
},
{
closed = 1;
nodes = (
"880 400 LINE",
"80 400 LINE",
"80 280 LINE",
"880 280 LINE"
);
},
{
closed = 1;
nodes = (
"880 160 LINE",
"80 160 LINE",
"80 40 LINE",
"880 40 LINE"
);
}
